# Blender v2.79 (sub 0) OBJ File: 'alphabet.blend'
# www.blender.org
mtllib _.mtl
o a_Text.037
v 0.209294 0.050000 0.348885
v 0.209294 0.050000 0.402416
v -0.209294 0.050000 0.402416
v -0.209294 0.050000 0.348885
v 0.209294 -0.050000 0.348885
v 0.209294 -0.050000 0.402416
v -0.209294 -0.050000 0.402416
v -0.209294 -0.050000 0.348885
v 0.209294 -0.050000 0.348885
v 0.220294 -0.047053 0.337885
v 0.228346 -0.039000 0.329832
v 0.231294 -0.028000 0.326885
v 0.209294 -0.050000 0.402416
v 0.220294 -0.047053 0.413416
v 0.228346 -0.039000 0.421469
v 0.231294 -0.028000 0.424416
v -0.209294 -0.050000 0.402416
v -0.220294 -0.047053 0.413416
v -0.228346 -0.039000 0.421469
v -0.231294 -0.028000 0.424416
v -0.209294 -0.050000 0.348885
v -0.220294 -0.047053 0.337885
v -0.228346 -0.039000 0.329832
v -0.231294 -0.028000 0.326885
v 0.231294 -0.028000 0.326885
v 0.231294 0.028000 0.326885
v 0.231294 -0.028000 0.424416
v 0.231294 0.028000 0.424416
v -0.231294 -0.028000 0.424416
v -0.231294 0.028000 0.424416
v -0.231294 -0.028000 0.326885
v -0.231294 0.028000 0.326885
v 0.231294 0.028000 0.326885
v 0.228346 0.039000 0.329832
v 0.220294 0.047053 0.337885
v 0.209294 0.050000 0.348885
v 0.231294 0.028000 0.424416
v 0.228346 0.039000 0.421469
v 0.220294 0.047053 0.413416
v 0.209294 0.050000 0.402416
v -0.231294 0.028000 0.424416
v -0.228346 0.039000 0.421469
v -0.220294 0.047053 0.413416
v -0.209294 0.050000 0.402416
v -0.231294 0.028000 0.326885
v -0.228346 0.039000 0.329832
v -0.220294 0.047053 0.337885
v -0.209294 0.050000 0.348885
vn 0.0000 1.0000 0.0000
vn 0.0000 -1.0000 0.0000
vn 0.3332 -0.8820 -0.3332
vn 0.3332 -0.8820 0.3332
vn 0.1316 -0.9825 0.1316
vn 0.1316 -0.9825 -0.1316
vn 0.5885 -0.5542 -0.5885
vn 0.5885 -0.5542 0.5885
vn 0.6612 -0.3543 -0.6612
vn 0.6612 -0.3543 0.6612
vn -0.3332 -0.8820 0.3332
vn -0.1316 -0.9825 0.1316
vn -0.5885 -0.5542 0.5885
vn -0.6612 -0.3543 0.6612
vn -0.3332 -0.8820 -0.3332
vn -0.1316 -0.9825 -0.1316
vn -0.5885 -0.5542 -0.5885
vn -0.6612 -0.3543 -0.6612
vn 0.7071 0.0000 -0.7071
vn 0.7071 0.0000 0.7071
vn -0.7071 0.0000 0.7071
vn -0.7071 0.0000 -0.7071
vn 0.5885 0.5542 -0.5885
vn 0.5885 0.5542 0.5885
vn 0.6612 0.3543 0.6612
vn 0.6612 0.3543 -0.6612
vn 0.3332 0.8820 -0.3332
vn 0.3332 0.8820 0.3332
vn 0.1316 0.9825 -0.1316
vn 0.1316 0.9825 0.1316
vn -0.5885 0.5542 0.5885
vn -0.6612 0.3543 0.6612
vn -0.3332 0.8820 0.3332
vn -0.1316 0.9825 0.1316
vn -0.5885 0.5542 -0.5885
vn -0.6612 0.3543 -0.6612
vn -0.3332 0.8820 -0.3332
vn -0.1316 0.9825 -0.1316
usemtl None
s off
f 3//1 1//1 4//1
f 3//1 2//1 1//1
f 5//2 7//2 8//2
f 6//2 7//2 5//2
s 1
f 10//3 14//4 13//5 9//6
f 11//7 15//8 14//4 10//3
f 12//9 16//10 15//8 11//7
f 14//4 18//11 17//12 13//5
f 15//8 19//13 18//11 14//4
f 16//10 20//14 19//13 15//8
f 18//11 22//15 21//16 17//12
f 19//13 23//17 22//15 18//11
f 20//14 24//18 23//17 19//13
f 22//15 10//3 9//6 21//16
f 23//17 11//7 10//3 22//15
f 24//18 12//9 11//7 23//17
f 26//19 28//20 27//20 25//19
f 28//20 30//21 29//21 27//20
f 30//21 32//22 31//22 29//21
f 32//22 26//19 25//19 31//22
f 34//23 38//24 37//25 33//26
f 35//27 39//28 38//24 34//23
f 36//29 40//30 39//28 35//27
f 38//24 42//31 41//32 37//25
f 39//28 43//33 42//31 38//24
f 40//30 44//34 43//33 39//28
f 42//31 46//35 45//36 41//32
f 43//33 47//37 46//35 42//31
f 44//34 48//38 47//37 43//33
f 46//35 34//23 33//26 45//36
f 47//37 35//27 34//23 46//35
f 48//38 36//29 35//27 47//37
