# Blender v2.79 (sub 0) OBJ File: 'alphabet.blend'
# www.blender.org
mtllib f.mtl
o a_Text.037
v 0.140892 0.050000 -0.235874
v 0.140892 0.050000 -0.179368
v -0.065428 0.050000 -0.179368
v -0.065428 0.050000 -0.021747
v 0.130112 0.050000 -0.021747
v 0.130112 0.050000 0.033643
v -0.065428 0.050000 0.033643
v -0.065428 0.050000 0.250000
v -0.133085 0.050000 0.250000
v -0.133085 0.050000 -0.235874
v 0.140892 -0.050000 -0.235874
v 0.140892 -0.050000 -0.179368
v -0.065428 -0.050000 -0.179368
v -0.065428 -0.050000 -0.021747
v 0.130112 -0.050000 -0.021747
v 0.130112 -0.050000 0.033643
v -0.065428 -0.050000 0.033643
v -0.065428 -0.050000 0.250000
v -0.133085 -0.050000 0.250000
v -0.133085 -0.050000 -0.235874
v 0.140892 -0.050000 -0.235874
v 0.151892 -0.047053 -0.246874
v 0.159945 -0.039000 -0.254926
v 0.162892 -0.028000 -0.257874
v 0.140892 -0.050000 -0.179368
v 0.151892 -0.047053 -0.168368
v 0.159945 -0.039000 -0.160315
v 0.162892 -0.028000 -0.157368
v -0.065428 -0.050000 -0.179368
v -0.054428 -0.047053 -0.168368
v -0.046375 -0.039000 -0.160315
v -0.043428 -0.028000 -0.157368
v -0.065428 -0.050000 -0.021747
v -0.054428 -0.047053 -0.032747
v -0.046375 -0.039000 -0.040800
v -0.043428 -0.028000 -0.043747
v 0.130112 -0.050000 -0.021747
v 0.141112 -0.047053 -0.032747
v 0.149164 -0.039000 -0.040800
v 0.152112 -0.028000 -0.043747
v 0.130112 -0.050000 0.033643
v 0.141112 -0.047053 0.044643
v 0.149164 -0.039000 0.052696
v 0.152112 -0.028000 0.055643
v -0.065428 -0.050000 0.033643
v -0.054428 -0.047053 0.044643
v -0.046375 -0.039000 0.052696
v -0.043428 -0.028000 0.055643
v -0.065428 -0.050000 0.250000
v -0.054428 -0.047053 0.261000
v -0.046375 -0.039000 0.269053
v -0.043428 -0.028000 0.272000
v -0.133085 -0.050000 0.250000
v -0.144085 -0.047053 0.261000
v -0.152138 -0.039000 0.269053
v -0.155085 -0.028000 0.272000
v -0.133085 -0.050000 -0.235874
v -0.144085 -0.047053 -0.246874
v -0.152138 -0.039000 -0.254926
v -0.155085 -0.028000 -0.257874
v 0.162892 -0.028000 -0.257874
v 0.162892 0.028000 -0.257874
v 0.162892 -0.028000 -0.157368
v 0.162892 0.028000 -0.157368
v -0.043428 -0.028000 -0.157368
v -0.043428 0.028000 -0.157368
v -0.043428 -0.028000 -0.043747
v -0.043428 0.028000 -0.043747
v 0.152112 -0.028000 -0.043747
v 0.152112 0.028000 -0.043747
v 0.152112 -0.028000 0.055643
v 0.152112 0.028000 0.055643
v -0.043428 -0.028000 0.055643
v -0.043428 0.028000 0.055643
v -0.043428 -0.028000 0.272000
v -0.043428 0.028000 0.272000
v -0.155085 -0.028000 0.272000
v -0.155085 0.028000 0.272000
v -0.155085 -0.028000 -0.257874
v -0.155085 0.028000 -0.257874
v 0.162892 0.028000 -0.257874
v 0.159945 0.039000 -0.254926
v 0.151892 0.047053 -0.246874
v 0.140892 0.050000 -0.235874
v 0.162892 0.028000 -0.157368
v 0.159945 0.039000 -0.160315
v 0.151892 0.047053 -0.168368
v 0.140892 0.050000 -0.179368
v -0.043428 0.028000 -0.157368
v -0.046375 0.039000 -0.160315
v -0.054428 0.047053 -0.168368
v -0.065428 0.050000 -0.179368
v -0.043428 0.028000 -0.043747
v -0.046375 0.039000 -0.040800
v -0.054428 0.047053 -0.032747
v -0.065428 0.050000 -0.021747
v 0.152112 0.028000 -0.043747
v 0.149164 0.039000 -0.040800
v 0.141112 0.047053 -0.032747
v 0.130112 0.050000 -0.021747
v 0.152112 0.028000 0.055643
v 0.149164 0.039000 0.052696
v 0.141112 0.047053 0.044643
v 0.130112 0.050000 0.033643
v -0.043428 0.028000 0.055643
v -0.046375 0.039000 0.052696
v -0.054428 0.047053 0.044643
v -0.065428 0.050000 0.033643
v -0.043428 0.028000 0.272000
v -0.046375 0.039000 0.269053
v -0.054428 0.047053 0.261000
v -0.065428 0.050000 0.250000
v -0.155085 0.028000 0.272000
v -0.152138 0.039000 0.269053
v -0.144085 0.047053 0.261000
v -0.133085 0.050000 0.250000
v -0.155085 0.028000 -0.257874
v -0.152138 0.039000 -0.254926
v -0.144085 0.047053 -0.246874
v -0.133085 0.050000 -0.235874
vn 0.0000 1.0000 0.0000
vn 0.0000 -1.0000 0.0000
vn 0.3332 -0.8820 -0.3332
vn 0.3332 -0.8820 0.3332
vn 0.1316 -0.9825 0.1316
vn 0.1316 -0.9825 -0.1316
vn 0.5885 -0.5542 -0.5885
vn 0.5885 -0.5542 0.5885
vn 0.6612 -0.3543 -0.6612
vn 0.6612 -0.3543 0.6612
vn 0.2085 -0.9555 0.2085
vn 0.5135 -0.6875 0.5135
vn 0.2085 -0.9555 -0.2085
vn 0.5135 -0.6875 -0.5135
vn -0.3332 -0.8820 0.3332
vn -0.1316 -0.9825 0.1316
vn -0.5885 -0.5542 0.5885
vn -0.6612 -0.3543 0.6612
vn -0.3332 -0.8820 -0.3332
vn -0.1316 -0.9825 -0.1316
vn -0.5885 -0.5542 -0.5885
vn -0.6612 -0.3543 -0.6612
vn 0.7071 0.0000 -0.7071
vn 0.7071 0.0000 0.7071
vn -0.7071 0.0000 0.7071
vn -0.7071 0.0000 -0.7071
vn 0.5885 0.5542 -0.5885
vn 0.5885 0.5542 0.5885
vn 0.6612 0.3543 0.6612
vn 0.6612 0.3543 -0.6612
vn 0.3332 0.8820 -0.3332
vn 0.3332 0.8820 0.3332
vn 0.1316 0.9825 -0.1316
vn 0.1316 0.9825 0.1316
vn 0.5135 0.6875 0.5135
vn 0.2085 0.9555 0.2085
vn 0.5135 0.6875 -0.5135
vn 0.2085 0.9555 -0.2085
vn -0.5885 0.5542 0.5885
vn -0.6612 0.3543 0.6612
vn -0.3332 0.8820 0.3332
vn -0.1316 0.9825 0.1316
vn -0.5885 0.5542 -0.5885
vn -0.6612 0.3543 -0.6612
vn -0.3332 0.8820 -0.3332
vn -0.1316 0.9825 -0.1316
usemtl None
s off
f 9//1 3//1 10//1
f 3//1 1//1 10//1
f 3//1 2//1 1//1
f 9//1 4//1 3//1
f 9//1 7//1 4//1
f 7//1 5//1 4//1
f 7//1 6//1 5//1
f 9//1 8//1 7//1
f 13//2 19//2 20//2
f 11//2 13//2 20//2
f 12//2 13//2 11//2
f 14//2 19//2 13//2
f 17//2 19//2 14//2
f 15//2 17//2 14//2
f 16//2 17//2 15//2
f 18//2 19//2 17//2
s 1
f 22//3 26//4 25//5 21//6
f 23//7 27//8 26//4 22//3
f 24//9 28//10 27//8 23//7
f 26//4 30//11 29//5 25//5
f 27//8 31//12 30//11 26//4
f 28//10 32//10 31//12 27//8
f 30//11 34//13 33//6 29//5
f 31//12 35//14 34//13 30//11
f 32//10 36//9 35//14 31//12
f 34//13 38//3 37//6 33//6
f 35//14 39//7 38//3 34//13
f 36//9 40//9 39//7 35//14
f 38//3 42//4 41//5 37//6
f 39//7 43//8 42//4 38//3
f 40//9 44//10 43//8 39//7
f 42//4 46//11 45//5 41//5
f 43//8 47//12 46//11 42//4
f 44//10 48//10 47//12 43//8
f 46//11 50//4 49//5 45//5
f 47//12 51//8 50//4 46//11
f 48//10 52//10 51//8 47//12
f 50//4 54//15 53//16 49//5
f 51//8 55//17 54//15 50//4
f 52//10 56//18 55//17 51//8
f 54//15 58//19 57//20 53//16
f 55//17 59//21 58//19 54//15
f 56//18 60//22 59//21 55//17
f 58//19 22//3 21//6 57//20
f 59//21 23//7 22//3 58//19
f 60//22 24//9 23//7 59//21
f 62//23 64//24 63//24 61//23
f 64//24 66//24 65//24 63//24
f 66//24 68//23 67//23 65//24
f 68//23 70//23 69//23 67//23
f 70//23 72//24 71//24 69//23
f 72//24 74//24 73//24 71//24
f 74//24 76//24 75//24 73//24
f 76//24 78//25 77//25 75//24
f 78//25 80//26 79//26 77//25
f 80//26 62//23 61//23 79//26
f 82//27 86//28 85//29 81//30
f 83//31 87//32 86//28 82//27
f 84//33 88//34 87//32 83//31
f 86//28 90//35 89//29 85//29
f 87//32 91//36 90//35 86//28
f 88//34 92//34 91//36 87//32
f 90//35 94//37 93//30 89//29
f 91//36 95//38 94//37 90//35
f 92//34 96//33 95//38 91//36
f 94//37 98//27 97//30 93//30
f 95//38 99//31 98//27 94//37
f 96//33 100//33 99//31 95//38
f 98//27 102//28 101//29 97//30
f 99//31 103//32 102//28 98//27
f 100//33 104//34 103//32 99//31
f 102//28 106//35 105//29 101//29
f 103//32 107//36 106//35 102//28
f 104//34 108//34 107//36 103//32
f 106//35 110//28 109//29 105//29
f 107//36 111//32 110//28 106//35
f 108//34 112//34 111//32 107//36
f 110//28 114//39 113//40 109//29
f 111//32 115//41 114//39 110//28
f 112//34 116//42 115//41 111//32
f 114//39 118//43 117//44 113//40
f 115//41 119//45 118//43 114//39
f 116//42 120//46 119//45 115//41
f 118//43 82//27 81//30 117//44
f 119//45 83//31 82//27 118//43
f 120//46 84//33 83//31 119//45
