# Blender v2.79 (sub 0) OBJ File: 'alphabet.blend'
# www.blender.org
mtllib m.mtl
o a_Text.037
v 0.167658 0.050000 -0.235874
v 0.191078 0.050000 0.250000
v 0.126394 0.050000 0.250000
v 0.116729 0.050000 -0.052974
v 0.112639 0.050000 -0.169331
v 0.089963 0.050000 -0.101673
v 0.018216 0.050000 0.091636
v -0.027509 0.050000 0.091636
v -0.095911 0.050000 -0.094238
v -0.118587 0.050000 -0.169331
v -0.120074 0.050000 -0.047770
v -0.128625 0.050000 0.250000
v -0.191078 0.050000 0.250000
v -0.167286 0.050000 -0.235874
v -0.088848 0.050000 -0.235874
v -0.023420 0.050000 -0.052974
v -0.002230 0.050000 0.008736
v 0.018216 0.050000 -0.052974
v 0.086989 0.050000 -0.235874
v 0.167658 -0.050000 -0.235874
v 0.191078 -0.050000 0.250000
v 0.126394 -0.050000 0.250000
v 0.116729 -0.050000 -0.052974
v 0.112639 -0.050000 -0.169331
v 0.089963 -0.050000 -0.101673
v 0.018216 -0.050000 0.091636
v -0.027509 -0.050000 0.091636
v -0.095911 -0.050000 -0.094238
v -0.118587 -0.050000 -0.169331
v -0.120074 -0.050000 -0.047770
v -0.128625 -0.050000 0.250000
v -0.191078 -0.050000 0.250000
v -0.167286 -0.050000 -0.235874
v -0.088848 -0.050000 -0.235874
v -0.023420 -0.050000 -0.052974
v -0.002230 -0.050000 0.008736
v 0.018216 -0.050000 -0.052974
v 0.086989 -0.050000 -0.235874
v 0.167658 -0.050000 -0.235874
v 0.178141 -0.047053 -0.246874
v 0.185814 -0.039000 -0.254926
v 0.188623 -0.028000 -0.257874
v 0.191078 -0.050000 0.250000
v 0.202621 -0.047053 0.261000
v 0.211071 -0.039000 0.269053
v 0.214164 -0.028000 0.272000
v 0.126394 -0.050000 0.250000
v 0.115739 -0.047053 0.261000
v 0.107940 -0.039000 0.269053
v 0.105085 -0.028000 0.272000
v 0.116729 -0.050000 -0.052974
v 0.105735 -0.047053 -0.052605
v 0.097687 -0.039000 -0.052336
v 0.094741 -0.028000 -0.052237
v 0.112639 -0.050000 -0.169331
v 0.103778 -0.047053 -0.108279
v 0.097291 -0.039000 -0.063585
v 0.094917 -0.028000 -0.047226
v 0.089963 -0.050000 -0.101673
v 0.100337 -0.047053 -0.098010
v 0.107931 -0.039000 -0.095329
v 0.110711 -0.028000 -0.094348
v 0.018216 -0.050000 0.091636
v 0.025866 -0.047053 0.102636
v 0.031467 -0.039000 0.110688
v 0.033517 -0.028000 0.113636
v -0.027509 -0.050000 0.091636
v -0.035182 -0.047053 0.102636
v -0.040800 -0.039000 0.110688
v -0.042856 -0.028000 0.113636
v -0.095911 -0.050000 -0.094238
v -0.106347 -0.047053 -0.090745
v -0.113986 -0.039000 -0.088189
v -0.116783 -0.028000 -0.087253
v -0.118587 -0.050000 -0.169331
v -0.108462 -0.047053 -0.097751
v -0.101050 -0.039000 -0.045350
v -0.098337 -0.028000 -0.026170
v -0.120074 -0.050000 -0.047770
v -0.109076 -0.047053 -0.047544
v -0.101025 -0.039000 -0.047380
v -0.098078 -0.028000 -0.047319
v -0.128625 -0.050000 0.250000
v -0.117936 -0.047053 0.261000
v -0.110111 -0.039000 0.269053
v -0.107247 -0.028000 0.272000
v -0.191078 -0.050000 0.250000
v -0.202630 -0.047053 0.261000
v -0.211086 -0.039000 0.269053
v -0.214182 -0.028000 0.272000
v -0.167286 -0.050000 -0.235874
v -0.177761 -0.047053 -0.246874
v -0.185429 -0.039000 -0.254926
v -0.188235 -0.028000 -0.257874
v -0.088848 -0.050000 -0.235874
v -0.081100 -0.047053 -0.246874
v -0.075428 -0.039000 -0.254926
v -0.073352 -0.028000 -0.257874
v -0.023420 -0.050000 -0.052974
v -0.013039 -0.047053 -0.056613
v -0.005440 -0.039000 -0.059277
v -0.002658 -0.028000 -0.060252
v -0.002230 -0.050000 0.008736
v -0.002417 -0.047053 -0.025677
v -0.002553 -0.039000 -0.050869
v -0.002603 -0.028000 -0.060090
v 0.018216 -0.050000 -0.052974
v 0.007843 -0.047053 -0.056641
v 0.000249 -0.039000 -0.059325
v -0.002531 -0.028000 -0.060308
v 0.086989 -0.050000 -0.235874
v 0.079373 -0.047053 -0.246874
v 0.073798 -0.039000 -0.254926
v 0.071757 -0.028000 -0.257874
v 0.188623 -0.028000 -0.257874
v 0.188623 0.028000 -0.257874
v 0.214164 -0.028000 0.272000
v 0.214164 0.028000 0.272000
v 0.105085 -0.028000 0.272000
v 0.105085 0.028000 0.272000
v 0.094741 -0.028000 -0.052237
v 0.094741 0.028000 -0.052237
v 0.094917 -0.028000 -0.047226
v 0.094917 0.028000 -0.047226
v 0.110711 -0.028000 -0.094348
v 0.110711 0.028000 -0.094348
v 0.033517 -0.028000 0.113636
v 0.033517 0.028000 0.113636
v -0.042856 -0.028000 0.113636
v -0.042856 0.028000 0.113636
v -0.116783 -0.028000 -0.087253
v -0.116783 0.028000 -0.087253
v -0.098337 -0.028000 -0.026170
v -0.098337 0.028000 -0.026170
v -0.098078 -0.028000 -0.047319
v -0.098078 0.028000 -0.047319
v -0.107247 -0.028000 0.272000
v -0.107247 0.028000 0.272000
v -0.214182 -0.028000 0.272000
v -0.214182 0.028000 0.272000
v -0.188235 -0.028000 -0.257874
v -0.188235 0.028000 -0.257874
v -0.073352 -0.028000 -0.257874
v -0.073352 0.028000 -0.257874
v -0.002658 -0.028000 -0.060252
v -0.002658 0.028000 -0.060252
v -0.002603 -0.028000 -0.060090
v -0.002603 0.028000 -0.060090
v -0.002531 -0.028000 -0.060308
v -0.002531 0.028000 -0.060308
v 0.071757 -0.028000 -0.257874
v 0.071757 0.028000 -0.257874
v 0.188623 0.028000 -0.257874
v 0.185814 0.039000 -0.254926
v 0.178141 0.047053 -0.246874
v 0.167658 0.050000 -0.235874
v 0.214164 0.028000 0.272000
v 0.211071 0.039000 0.269053
v 0.202621 0.047053 0.261000
v 0.191078 0.050000 0.250000
v 0.105085 0.028000 0.272000
v 0.107940 0.039000 0.269053
v 0.115739 0.047053 0.261000
v 0.126394 0.050000 0.250000
v 0.094741 0.028000 -0.052237
v 0.097687 0.039000 -0.052336
v 0.105735 0.047053 -0.052605
v 0.116729 0.050000 -0.052974
v 0.094917 0.028000 -0.047226
v 0.097291 0.039000 -0.063585
v 0.103778 0.047053 -0.108279
v 0.112639 0.050000 -0.169331
v 0.110711 0.028000 -0.094348
v 0.107931 0.039000 -0.095329
v 0.100337 0.047053 -0.098010
v 0.089963 0.050000 -0.101673
v 0.033517 0.028000 0.113636
v 0.031467 0.039000 0.110688
v 0.025866 0.047053 0.102636
v 0.018216 0.050000 0.091636
v -0.042856 0.028000 0.113636
v -0.040800 0.039000 0.110688
v -0.035182 0.047053 0.102636
v -0.027509 0.050000 0.091636
v -0.116783 0.028000 -0.087253
v -0.113986 0.039000 -0.088189
v -0.106347 0.047053 -0.090745
v -0.095911 0.050000 -0.094238
v -0.098337 0.028000 -0.026170
v -0.101050 0.039000 -0.045350
v -0.108462 0.047053 -0.097751
v -0.118587 0.050000 -0.169331
v -0.098078 0.028000 -0.047319
v -0.101025 0.039000 -0.047380
v -0.109076 0.047053 -0.047544
v -0.120074 0.050000 -0.047770
v -0.107247 0.028000 0.272000
v -0.110111 0.039000 0.269053
v -0.117936 0.047053 0.261000
v -0.128625 0.050000 0.250000
v -0.214182 0.028000 0.272000
v -0.211086 0.039000 0.269053
v -0.202630 0.047053 0.261000
v -0.191078 0.050000 0.250000
v -0.188235 0.028000 -0.257874
v -0.185429 0.039000 -0.254926
v -0.177761 0.047053 -0.246874
v -0.167286 0.050000 -0.235874
v -0.073352 0.028000 -0.257874
v -0.075428 0.039000 -0.254926
v -0.081100 0.047053 -0.246874
v -0.088848 0.050000 -0.235874
v -0.002658 0.028000 -0.060252
v -0.005440 0.039000 -0.059277
v -0.013039 0.047053 -0.056613
v -0.023420 0.050000 -0.052974
v -0.002603 0.028000 -0.060090
v -0.002553 0.039000 -0.050869
v -0.002417 0.047053 -0.025677
v -0.002230 0.050000 0.008736
v -0.002531 0.028000 -0.060308
v 0.000249 0.039000 -0.059325
v 0.007843 0.047053 -0.056641
v 0.018216 0.050000 -0.052974
v 0.071757 0.028000 -0.257874
v 0.073798 0.039000 -0.254926
v 0.079373 0.047053 -0.246874
v 0.086989 0.050000 -0.235874
vn 0.0000 1.0000 0.0000
vn 0.0000 -1.0000 0.0000
vn 0.3288 -0.8791 -0.3450
vn 0.3369 -0.8851 0.3210
vn 0.1316 -0.9833 0.1254
vn 0.1314 -0.9817 -0.1379
vn 0.5767 -0.5488 -0.6052
vn 0.5997 -0.5600 0.5715
vn 0.6470 -0.3471 -0.6789
vn 0.6748 -0.3620 0.6431
vn -0.3303 -0.8801 0.3410
vn -0.1315 -0.9820 0.1357
vn -0.5808 -0.5506 0.5996
vn -0.6518 -0.3495 0.6730
vn -0.4995 -0.8661 0.0167
vn -0.2586 -0.9659 0.0087
vn -0.8654 -0.5001 0.0290
vn -0.9654 -0.2588 0.0323
vn -0.0671 -0.9970 0.0384
vn -0.0068 -0.9988 0.0472
vn -0.9567 -0.2560 -0.1384
vn -0.9896 0.0000 -0.1436
vn 0.2402 -0.9658 0.0970
vn 0.2440 -0.9659 0.0862
vn -0.4151 0.1619 0.8952
vn -0.4813 0.0435 0.8755
vn 0.2872 -0.8642 0.4130
vn 0.1227 -0.9766 0.1764
vn 0.4874 -0.5207 0.7009
vn 0.5428 -0.3103 0.7804
vn -0.2877 -0.8643 0.4124
vn -0.1228 -0.9767 0.1760
vn -0.4884 -0.5209 0.7001
vn -0.5438 -0.3105 0.7796
vn -0.2384 -0.9657 0.1026
vn -0.2453 -0.9659 0.0821
vn 0.4003 0.1619 0.9019
vn 0.4668 0.0435 0.8832
vn 0.0570 -0.9978 0.0330
vn 0.0057 -0.9991 0.0403
vn 0.1199 0.8538 -0.5066
vn -0.0692 0.8696 -0.4889
vn 0.5009 -0.8654 0.0103
vn 0.2587 -0.9659 0.0053
vn 0.7072 -0.7066 0.0224
vn -0.1826 0.0433 0.9822
vn 0.3306 -0.8802 0.3403
vn 0.1315 -0.9820 0.1353
vn 0.5816 -0.5509 0.5985
vn 0.6528 -0.3500 0.6718
vn -0.3369 -0.8852 0.3208
vn -0.1316 -0.9833 0.1253
vn -0.5999 -0.5601 0.5712
vn -0.6750 -0.3622 0.6428
vn -0.3287 -0.8791 -0.3452
vn -0.1314 -0.9817 -0.1379
vn -0.5765 -0.5487 -0.6054
vn -0.6467 -0.3470 -0.6792
vn 0.2892 -0.8647 -0.4107
vn 0.1232 -0.9768 -0.1749
vn 0.4913 -0.5216 -0.6975
vn 0.5472 -0.3114 -0.7769
vn 0.4726 -0.8656 -0.1657
vn 0.2442 -0.9659 -0.0856
vn 0.8175 -0.4995 -0.2865
vn 0.9115 -0.2588 -0.3195
vn -0.0006 -0.9940 -0.1093
vn -0.0005 -0.9963 -0.0853
vn -0.0021 -0.9232 -0.3843
vn -0.0042 -0.6424 -0.7663
vn -0.4736 -0.8646 -0.1674
vn -0.2440 -0.9659 -0.0862
vn -0.8172 -0.4986 -0.2889
vn -0.9107 -0.2589 -0.3219
vn -0.2865 -0.8641 -0.4138
vn -0.1224 -0.9766 -0.1769
vn -0.4861 -0.5204 -0.7021
vn -0.5412 -0.3099 -0.7817
vn 0.6899 0.0000 -0.7239
vn 0.7239 0.0000 0.6899
vn -0.6957 0.0000 0.7183
vn -0.0335 0.0000 -0.9994
vn 0.1436 0.0000 -0.9896
vn -0.3329 0.0000 0.9429
vn 0.5710 0.0000 0.8209
vn -0.5721 0.0000 0.8202
vn 0.3173 0.0000 0.9483
vn -0.1400 0.0000 -0.9901
vn -0.0204 0.0000 0.9998
vn 0.6969 0.0000 0.7172
vn -0.7242 0.0000 0.6896
vn -0.6896 0.0000 -0.7242
vn 0.5758 0.0000 -0.8176
vn 0.9437 0.0000 -0.3308
vn -0.0054 0.0000 -1.0000
vn -0.9428 0.0000 -0.3333
vn -0.5692 0.0000 -0.8222
vn 0.5767 0.5488 -0.6052
vn 0.5997 0.5600 0.5715
vn 0.6748 0.3620 0.6431
vn 0.6470 0.3471 -0.6789
vn 0.3288 0.8791 -0.3450
vn 0.3369 0.8851 0.3210
vn 0.1314 0.9817 -0.1379
vn 0.1316 0.9833 0.1254
vn -0.5808 0.5506 0.5996
vn -0.6518 0.3495 0.6730
vn -0.3303 0.8801 0.3410
vn -0.1315 0.9820 0.1357
vn -0.8654 0.5001 0.0290
vn -0.9654 0.2588 0.0323
vn -0.4995 0.8661 0.0167
vn -0.2586 0.9659 0.0087
vn -0.9567 0.2560 -0.1384
vn -0.0671 0.9970 0.0384
vn -0.0068 0.9988 0.0472
vn -0.4151 -0.1619 0.8952
vn -0.4813 -0.0435 0.8755
vn 0.2402 0.9658 0.0970
vn 0.2440 0.9659 0.0862
vn 0.4874 0.5207 0.7009
vn 0.5428 0.3103 0.7804
vn 0.2872 0.8642 0.4130
vn 0.1227 0.9766 0.1764
vn -0.4884 0.5209 0.7001
vn -0.5438 0.3105 0.7796
vn -0.2877 0.8643 0.4124
vn -0.1228 0.9767 0.1760
vn 0.4003 -0.1619 0.9019
vn 0.4668 -0.0435 0.8832
vn -0.2384 0.9657 0.1026
vn -0.2453 0.9659 0.0821
vn 0.1199 -0.8538 -0.5066
vn -0.0692 -0.8696 -0.4889
vn 0.0570 0.9978 0.0330
vn 0.0057 0.9991 0.0403
vn 0.7072 0.7066 0.0224
vn -0.1826 -0.0433 0.9822
vn 0.5009 0.8654 0.0103
vn 0.2587 0.9659 0.0053
vn 0.5816 0.5509 0.5985
vn 0.6528 0.3500 0.6718
vn 0.3306 0.8802 0.3403
vn 0.1315 0.9820 0.1353
vn -0.5999 0.5601 0.5712
vn -0.6750 0.3622 0.6428
vn -0.3369 0.8852 0.3208
vn -0.1316 0.9833 0.1253
vn -0.5765 0.5487 -0.6054
vn -0.6467 0.3470 -0.6792
vn -0.3287 0.8791 -0.3452
vn -0.1314 0.9817 -0.1379
vn 0.4913 0.5216 -0.6975
vn 0.5472 0.3114 -0.7769
vn 0.2892 0.8647 -0.4107
vn 0.1232 0.9768 -0.1749
vn 0.8175 0.4995 -0.2865
vn 0.9115 0.2588 -0.3195
vn 0.4726 0.8656 -0.1657
vn 0.2442 0.9659 -0.0856
vn -0.0021 0.9232 -0.3843
vn -0.0042 0.6424 -0.7663
vn -0.0006 0.9940 -0.1093
vn -0.0005 0.9963 -0.0853
vn -0.8172 0.4986 -0.2889
vn -0.9107 0.2589 -0.3219
vn -0.4736 0.8646 -0.1674
vn -0.2440 0.9659 -0.0862
vn -0.4861 0.5204 -0.7021
vn -0.5412 0.3099 -0.7817
vn -0.2865 0.8641 -0.4138
vn -0.1224 0.9766 -0.1769
usemtl None
s off
f 13//1 10//1 14//1
f 10//1 15//1 14//1
f 10//1 16//1 15//1
f 18//1 5//1 19//1
f 5//1 1//1 19//1
f 5//1 2//1 1//1
f 13//1 11//1 10//1
f 9//1 16//1 10//1
f 18//1 6//1 5//1
f 4//1 2//1 5//1
f 18//1 7//1 6//1
f 8//1 16//1 9//1
f 8//1 17//1 16//1
f 17//1 7//1 18//1
f 3//1 2//1 4//1
f 13//1 12//1 11//1
f 8//1 7//1 17//1
f 29//2 32//2 33//2
f 34//2 29//2 33//2
f 35//2 29//2 34//2
f 24//2 37//2 38//2
f 20//2 24//2 38//2
f 21//2 24//2 20//2
f 30//2 32//2 29//2
f 35//2 28//2 29//2
f 25//2 37//2 24//2
f 21//2 23//2 24//2
f 26//2 37//2 25//2
f 35//2 27//2 28//2
f 36//2 27//2 35//2
f 26//2 36//2 37//2
f 21//2 22//2 23//2
f 31//2 32//2 30//2
f 26//2 27//2 36//2
s 1
f 40//3 44//4 43//5 39//6
f 41//7 45//8 44//4 40//3
f 42//9 46//10 45//8 41//7
f 44//4 48//11 47//12 43//5
f 45//8 49//13 48//11 44//4
f 46//10 50//14 49//13 45//8
f 48//11 52//15 51//16 47//12
f 49//13 53//17 52//15 48//11
f 50//14 54//18 53//17 49//13
f 52//15 56//19 55//20 51//16
f 53//17 57//21 56//19 52//15
f 54//18 58//22 57//21 53//17
f 56//19 60//23 59//24 55//20
f 57//21 61//25 60//23 56//19
f 58//22 62//26 61//25 57//21
f 60//23 64//27 63//28 59//24
f 61//25 65//29 64//27 60//23
f 62//26 66//30 65//29 61//25
f 64//27 68//31 67//32 63//28
f 65//29 69//33 68//31 64//27
f 66//30 70//34 69//33 65//29
f 68//31 72//35 71//36 67//32
f 69//33 73//37 72//35 68//31
f 70//34 74//38 73//37 69//33
f 72//35 76//39 75//40 71//36
f 73//37 77//41 76//39 72//35
f 74//38 78//42 77//41 73//37
f 76//39 80//43 79//44 75//40
f 77//41 81//45 80//43 76//39
f 78//42 82//46 81//45 77//41
f 80//43 84//47 83//48 79//44
f 81//45 85//49 84//47 80//43
f 82//46 86//50 85//49 81//45
f 84//47 88//51 87//52 83//48
f 85//49 89//53 88//51 84//47
f 86//50 90//54 89//53 85//49
f 88//51 92//55 91//56 87//52
f 89//53 93//57 92//55 88//51
f 90//54 94//58 93//57 89//53
f 92//55 96//59 95//60 91//56
f 93//57 97//61 96//59 92//55
f 94//58 98//62 97//61 93//57
f 96//59 100//63 99//64 95//60
f 97//61 101//65 100//63 96//59
f 98//62 102//66 101//65 97//61
f 100//63 104//67 103//68 99//64
f 101//65 105//69 104//67 100//63
f 102//66 106//70 105//69 101//65
f 104//67 108//71 107//72 103//68
f 105//69 109//73 108//71 104//67
f 106//70 110//74 109//73 105//69
f 108//71 112//75 111//76 107//72
f 109//73 113//77 112//75 108//71
f 110//74 114//78 113//77 109//73
f 112//75 40//3 39//6 111//76
f 113//77 41//7 40//3 112//75
f 114//78 42//9 41//7 113//77
f 116//79 118//80 117//80 115//79
f 118//80 120//81 119//81 117//80
f 120//81 122//82 121//82 119//81
f 122//82 124//83 123//83 121//82
f 124//83 126//84 125//84 123//83
f 126//84 128//85 127//85 125//84
f 128//85 130//86 129//86 127//85
f 130//86 132//87 131//87 129//86
f 132//87 134//88 133//88 131//87
f 134//88 136//89 135//89 133//88
f 136//89 138//90 137//90 135//89
f 138//90 140//91 139//91 137//90
f 140//91 142//92 141//92 139//91
f 142//92 144//93 143//93 141//92
f 144//93 146//94 145//94 143//93
f 146//94 148//95 147//95 145//94
f 148//95 150//96 149//96 147//95
f 150//96 152//97 151//97 149//96
f 152//97 116//79 115//79 151//97
f 154//98 158//99 157//100 153//101
f 155//102 159//103 158//99 154//98
f 156//104 160//105 159//103 155//102
f 158//99 162//106 161//107 157//100
f 159//103 163//108 162//106 158//99
f 160//105 164//109 163//108 159//103
f 162//106 166//110 165//111 161//107
f 163//108 167//112 166//110 162//106
f 164//109 168//113 167//112 163//108
f 166//110 170//114 169//22 165//111
f 167//112 171//115 170//114 166//110
f 168//113 172//116 171//115 167//112
f 170//114 174//117 173//118 169//22
f 171//115 175//119 174//117 170//114
f 172//116 176//120 175//119 171//115
f 174//117 178//121 177//122 173//118
f 175//119 179//123 178//121 174//117
f 176//120 180//124 179//123 175//119
f 178//121 182//125 181//126 177//122
f 179//123 183//127 182//125 178//121
f 180//124 184//128 183//127 179//123
f 182//125 186//129 185//130 181//126
f 183//127 187//131 186//129 182//125
f 184//128 188//132 187//131 183//127
f 186//129 190//133 189//134 185//130
f 187//131 191//135 190//133 186//129
f 188//132 192//136 191//135 187//131
f 190//133 194//137 193//138 189//134
f 191//135 195//139 194//137 190//133
f 192//136 196//140 195//139 191//135
f 194//137 198//141 197//142 193//138
f 195//139 199//143 198//141 194//137
f 196//140 200//144 199//143 195//139
f 198//141 202//145 201//146 197//142
f 199//143 203//147 202//145 198//141
f 200//144 204//148 203//147 199//143
f 202//145 206//149 205//150 201//146
f 203//147 207//151 206//149 202//145
f 204//148 208//152 207//151 203//147
f 206//149 210//153 209//154 205//150
f 207//151 211//155 210//153 206//149
f 208//152 212//156 211//155 207//151
f 210//153 214//157 213//158 209//154
f 211//155 215//159 214//157 210//153
f 212//156 216//160 215//159 211//155
f 214//157 218//161 217//162 213//158
f 215//159 219//163 218//161 214//157
f 216//160 220//164 219//163 215//159
f 218//161 222//165 221//166 217//162
f 219//163 223//167 222//165 218//161
f 220//164 224//168 223//167 219//163
f 222//165 226//169 225//170 221//166
f 223//167 227//171 226//169 222//165
f 224//168 228//172 227//171 223//167
f 226//169 154//98 153//101 225//170
f 227//171 155//102 154//98 226//169
f 228//172 156//104 155//102 227//171
