# Blender v2.79 (sub 0) OBJ File: 'alphabet.blend'
# www.blender.org
mtllib x.mtl
o a_Text.037
v 0.039033 0.050000 -0.001301
v 0.200372 0.050000 0.250000
v 0.116729 0.050000 0.250000
v -0.001487 0.050000 0.053717
v -0.120074 0.050000 0.250000
v -0.202602 0.050000 0.250000
v -0.040892 0.050000 0.001673
v -0.189591 0.050000 -0.235874
v -0.111152 0.050000 -0.235874
v -0.000000 0.050000 -0.052974
v 0.111896 0.050000 -0.235874
v 0.188104 0.050000 -0.235874
v 0.039033 -0.050000 -0.001301
v 0.200372 -0.050000 0.250000
v 0.116729 -0.050000 0.250000
v -0.001487 -0.050000 0.053717
v -0.120074 -0.050000 0.250000
v -0.202602 -0.050000 0.250000
v -0.040892 -0.050000 0.001673
v -0.189591 -0.050000 -0.235874
v -0.111152 -0.050000 -0.235874
v -0.000000 -0.050000 -0.052974
v 0.111896 -0.050000 -0.235874
v 0.188104 -0.050000 -0.235874
v 0.039033 -0.050000 -0.001301
v 0.052086 -0.047053 -0.001331
v 0.061641 -0.039000 -0.001353
v 0.065138 -0.028000 -0.001361
v 0.200372 -0.050000 0.250000
v 0.220506 -0.047053 0.261000
v 0.235245 -0.039000 0.269053
v 0.240640 -0.028000 0.272000
v 0.116729 -0.050000 0.250000
v 0.110513 -0.047053 0.261000
v 0.105962 -0.039000 0.269053
v 0.104297 -0.028000 0.272000
v -0.001487 -0.050000 0.053717
v -0.001502 -0.047053 0.075014
v -0.001513 -0.039000 0.090604
v -0.001517 -0.028000 0.096310
v -0.120074 -0.050000 0.250000
v -0.113868 -0.047053 0.261000
v -0.109325 -0.039000 0.269053
v -0.107663 -0.028000 0.272000
v -0.202602 -0.050000 0.250000
v -0.222892 -0.047053 0.261000
v -0.237745 -0.039000 0.269053
v -0.243182 -0.028000 0.272000
v -0.040892 -0.050000 0.001673
v -0.053943 -0.047053 0.001556
v -0.063497 -0.039000 0.001470
v -0.066993 -0.028000 0.001439
v -0.189591 -0.050000 -0.235874
v -0.209454 -0.047053 -0.246874
v -0.223995 -0.039000 -0.254926
v -0.229317 -0.028000 -0.257874
v -0.111152 -0.050000 -0.235874
v -0.104965 -0.047053 -0.246874
v -0.100436 -0.039000 -0.254926
v -0.098778 -0.028000 -0.257874
v -0.000000 -0.050000 -0.052974
v 0.000031 -0.047053 -0.074103
v 0.000054 -0.039000 -0.089571
v 0.000063 -0.028000 -0.095232
v 0.111896 -0.050000 -0.235874
v 0.105730 -0.047053 -0.246874
v 0.101217 -0.039000 -0.254926
v 0.099565 -0.028000 -0.257874
v 0.188104 -0.050000 -0.235874
v 0.208128 -0.047053 -0.246874
v 0.222786 -0.039000 -0.254926
v 0.228152 -0.028000 -0.257874
v 0.065138 -0.028000 -0.001361
v 0.065138 0.028000 -0.001361
v 0.240640 -0.028000 0.272000
v 0.240640 0.028000 0.272000
v 0.104297 -0.028000 0.272000
v 0.104297 0.028000 0.272000
v -0.001517 -0.028000 0.096310
v -0.001517 0.028000 0.096310
v -0.107663 -0.028000 0.272000
v -0.107663 0.028000 0.272000
v -0.243182 -0.028000 0.272000
v -0.243182 0.028000 0.272000
v -0.066993 -0.028000 0.001439
v -0.066993 0.028000 0.001439
v -0.229317 -0.028000 -0.257874
v -0.229317 0.028000 -0.257874
v -0.098778 -0.028000 -0.257874
v -0.098778 0.028000 -0.257874
v 0.000063 -0.028000 -0.095232
v 0.000063 0.028000 -0.095232
v 0.099565 -0.028000 -0.257874
v 0.099565 0.028000 -0.257874
v 0.228152 -0.028000 -0.257874
v 0.228152 0.028000 -0.257874
v 0.065138 0.028000 -0.001361
v 0.061641 0.039000 -0.001353
v 0.052086 0.047053 -0.001331
v 0.039033 0.050000 -0.001301
v 0.240640 0.028000 0.272000
v 0.235245 0.039000 0.269053
v 0.220506 0.047053 0.261000
v 0.200372 0.050000 0.250000
v 0.104297 0.028000 0.272000
v 0.105962 0.039000 0.269053
v 0.110513 0.047053 0.261000
v 0.116729 0.050000 0.250000
v -0.001517 0.028000 0.096310
v -0.001513 0.039000 0.090604
v -0.001502 0.047053 0.075014
v -0.001487 0.050000 0.053717
v -0.107663 0.028000 0.272000
v -0.109325 0.039000 0.269053
v -0.113868 0.047053 0.261000
v -0.120074 0.050000 0.250000
v -0.243182 0.028000 0.272000
v -0.237745 0.039000 0.269053
v -0.222892 0.047053 0.261000
v -0.202602 0.050000 0.250000
v -0.066993 0.028000 0.001439
v -0.063497 0.039000 0.001470
v -0.053943 0.047053 0.001556
v -0.040892 0.050000 0.001673
v -0.229317 0.028000 -0.257874
v -0.223995 0.039000 -0.254926
v -0.209454 0.047053 -0.246874
v -0.189591 0.050000 -0.235874
v -0.098778 0.028000 -0.257874
v -0.100436 0.039000 -0.254926
v -0.104965 0.047053 -0.246874
v -0.111152 0.050000 -0.235874
v 0.000063 0.028000 -0.095232
v 0.000054 0.039000 -0.089571
v 0.000031 0.047053 -0.074103
v -0.000000 0.050000 -0.052974
v 0.099565 0.028000 -0.257874
v 0.101217 0.039000 -0.254926
v 0.105730 0.047053 -0.246874
v 0.111896 0.050000 -0.235874
v 0.228152 0.028000 -0.257874
v 0.222786 0.039000 -0.254926
v 0.208128 0.047053 -0.246874
v 0.188104 0.050000 -0.235874
vn 0.0000 1.0000 0.0000
vn 0.0000 -1.0000 0.0000
vn 0.3718 -0.9283 -0.0009
vn 0.3273 -0.9278 0.1788
vn 0.1118 -0.9918 0.0611
vn 0.2203 -0.9754 -0.0005
vn 0.7960 -0.6052 -0.0018
vn 0.6674 -0.6492 0.3646
vn 0.9530 -0.3030 -0.0022
vn 0.7660 -0.4878 0.4185
vn -0.2523 -0.8584 0.4465
vn -0.1118 -0.9738 0.1978
vn -0.4235 -0.5088 0.7495
vn -0.4702 -0.2941 0.8321
vn -0.0001 -0.9803 0.1975
vn -0.0001 -0.9905 0.1371
vn -0.0004 -0.8089 0.5879
vn -0.0006 -0.4605 0.8877
vn 0.2520 -0.8584 0.4467
vn 0.1117 -0.9738 0.1979
vn 0.4230 -0.5087 0.7498
vn 0.4696 -0.2940 0.8324
vn -0.3265 -0.9284 0.1770
vn -0.1114 -0.9919 0.0604
vn -0.6675 -0.6507 0.3619
vn -0.7663 -0.4900 0.4154
vn -0.3719 -0.9283 -0.0033
vn -0.2203 -0.9754 -0.0020
vn -0.7960 -0.6052 -0.0071
vn -0.9529 -0.3030 -0.0085
vn -0.3286 -0.9267 -0.1820
vn -0.1126 -0.9917 -0.0623
vn -0.6673 -0.6466 -0.3695
vn -0.7655 -0.4840 -0.4239
vn 0.2515 -0.8583 -0.4472
vn 0.1115 -0.9738 -0.1982
vn 0.4221 -0.5086 -0.7505
vn 0.4686 -0.2938 -0.8331
vn 0.0003 -0.9799 -0.1994
vn 0.0002 -0.9904 -0.1382
vn 0.0009 -0.8063 -0.5915
vn 0.0013 -0.4576 -0.8891
vn -0.2509 -0.8583 -0.4476
vn -0.1113 -0.9738 -0.1985
vn -0.4210 -0.5084 -0.7512
vn -0.4674 -0.2936 -0.8339
vn 0.3279 -0.9274 -0.1801
vn 0.1121 -0.9918 -0.0616
vn 0.6674 -0.6482 -0.3666
vn 0.7658 -0.4863 -0.4207
vn 1.0000 0.0000 -0.0023
vn 0.8776 0.0000 0.4794
vn -0.4920 0.0000 0.8706
vn -0.0007 0.0000 1.0000
vn 0.4913 0.0000 0.8709
vn -0.8791 0.0000 0.4766
vn -0.9999 0.0000 -0.0089
vn -0.8748 0.0000 -0.4845
vn 0.4902 0.0000 -0.8716
vn 0.0015 0.0000 -1.0000
vn -0.4889 0.0000 -0.8723
vn 0.8764 0.0000 -0.4815
vn 0.7960 0.6052 -0.0018
vn 0.6674 0.6492 0.3646
vn 0.7660 0.4878 0.4185
vn 0.9530 0.3030 -0.0022
vn 0.3718 0.9283 -0.0009
vn 0.3273 0.9278 0.1788
vn 0.2203 0.9754 -0.0005
vn 0.1118 0.9918 0.0611
vn -0.4235 0.5088 0.7495
vn -0.4702 0.2941 0.8321
vn -0.2523 0.8584 0.4465
vn -0.1118 0.9738 0.1978
vn -0.0004 0.8089 0.5879
vn -0.0006 0.4605 0.8877
vn -0.0001 0.9803 0.1975
vn -0.0001 0.9905 0.1371
vn 0.4230 0.5087 0.7498
vn 0.4696 0.2940 0.8324
vn 0.2520 0.8584 0.4467
vn 0.1117 0.9738 0.1979
vn -0.6675 0.6507 0.3619
vn -0.7663 0.4900 0.4154
vn -0.3265 0.9284 0.1770
vn -0.1114 0.9919 0.0604
vn -0.7960 0.6052 -0.0071
vn -0.9529 0.3030 -0.0085
vn -0.3719 0.9283 -0.0033
vn -0.2203 0.9754 -0.0020
vn -0.6673 0.6466 -0.3695
vn -0.7655 0.4840 -0.4239
vn -0.3286 0.9267 -0.1820
vn -0.1126 0.9917 -0.0623
vn 0.4221 0.5086 -0.7505
vn 0.4686 0.2938 -0.8331
vn 0.2515 0.8583 -0.4472
vn 0.1115 0.9738 -0.1982
vn 0.0009 0.8063 -0.5915
vn 0.0013 0.4576 -0.8891
vn 0.0003 0.9799 -0.1994
vn 0.0002 0.9904 -0.1382
vn -0.4210 0.5084 -0.7512
vn -0.4674 0.2936 -0.8339
vn -0.2509 0.8583 -0.4476
vn -0.1113 0.9738 -0.1985
vn 0.6674 0.6482 -0.3666
vn 0.7658 0.4863 -0.4207
vn 0.3279 0.9274 -0.1801
vn 0.1121 0.9918 -0.0616
usemtl None
s off
f 7//1 9//1 8//1
f 7//1 10//1 9//1
f 10//1 12//1 11//1
f 10//1 1//1 12//1
f 7//1 1//1 10//1
f 7//1 2//1 1//1
f 6//1 4//1 7//1
f 4//1 2//1 7//1
f 6//1 5//1 4//1
f 3//1 2//1 4//1
f 21//2 19//2 20//2
f 22//2 19//2 21//2
f 24//2 22//2 23//2
f 13//2 22//2 24//2
f 13//2 19//2 22//2
f 14//2 19//2 13//2
f 16//2 18//2 19//2
f 14//2 16//2 19//2
f 17//2 18//2 16//2
f 14//2 15//2 16//2
s 1
f 26//3 30//4 29//5 25//6
f 27//7 31//8 30//4 26//3
f 28//9 32//10 31//8 27//7
f 30//4 34//11 33//12 29//5
f 31//8 35//13 34//11 30//4
f 32//10 36//14 35//13 31//8
f 34//11 38//15 37//16 33//12
f 35//13 39//17 38//15 34//11
f 36//14 40//18 39//17 35//13
f 38//15 42//19 41//20 37//16
f 39//17 43//21 42//19 38//15
f 40//18 44//22 43//21 39//17
f 42//19 46//23 45//24 41//20
f 43//21 47//25 46//23 42//19
f 44//22 48//26 47//25 43//21
f 46//23 50//27 49//28 45//24
f 47//25 51//29 50//27 46//23
f 48//26 52//30 51//29 47//25
f 50//27 54//31 53//32 49//28
f 51//29 55//33 54//31 50//27
f 52//30 56//34 55//33 51//29
f 54//31 58//35 57//36 53//32
f 55//33 59//37 58//35 54//31
f 56//34 60//38 59//37 55//33
f 58//35 62//39 61//40 57//36
f 59//37 63//41 62//39 58//35
f 60//38 64//42 63//41 59//37
f 62//39 66//43 65//44 61//40
f 63//41 67//45 66//43 62//39
f 64//42 68//46 67//45 63//41
f 66//43 70//47 69//48 65//44
f 67//45 71//49 70//47 66//43
f 68//46 72//50 71//49 67//45
f 70//47 26//3 25//6 69//48
f 71//49 27//7 26//3 70//47
f 72//50 28//9 27//7 71//49
f 74//51 76//52 75//52 73//51
f 76//52 78//53 77//53 75//52
f 78//53 80//54 79//54 77//53
f 80//54 82//55 81//55 79//54
f 82//55 84//56 83//56 81//55
f 84//56 86//57 85//57 83//56
f 86//57 88//58 87//58 85//57
f 88//58 90//59 89//59 87//58
f 90//59 92//60 91//60 89//59
f 92//60 94//61 93//61 91//60
f 94//61 96//62 95//62 93//61
f 96//62 74//51 73//51 95//62
f 98//63 102//64 101//65 97//66
f 99//67 103//68 102//64 98//63
f 100//69 104//70 103//68 99//67
f 102//64 106//71 105//72 101//65
f 103//68 107//73 106//71 102//64
f 104//70 108//74 107//73 103//68
f 106//71 110//75 109//76 105//72
f 107//73 111//77 110//75 106//71
f 108//74 112//78 111//77 107//73
f 110//75 114//79 113//80 109//76
f 111//77 115//81 114//79 110//75
f 112//78 116//82 115//81 111//77
f 114//79 118//83 117//84 113//80
f 115//81 119//85 118//83 114//79
f 116//82 120//86 119//85 115//81
f 118//83 122//87 121//88 117//84
f 119//85 123//89 122//87 118//83
f 120//86 124//90 123//89 119//85
f 122//87 126//91 125//92 121//88
f 123//89 127//93 126//91 122//87
f 124//90 128//94 127//93 123//89
f 126//91 130//95 129//96 125//92
f 127//93 131//97 130//95 126//91
f 128//94 132//98 131//97 127//93
f 130//95 134//99 133//100 129//96
f 131//97 135//101 134//99 130//95
f 132//98 136//102 135//101 131//97
f 134//99 138//103 137//104 133//100
f 135//101 139//105 138//103 134//99
f 136//102 140//106 139//105 135//101
f 138//103 142//107 141//108 137//104
f 139//105 143//109 142//107 138//103
f 140//106 144//110 143//109 139//105
f 142//107 98//63 97//66 141//108
f 143//109 99//67 98//63 142//107
f 144//110 100//69 99//67 143//109
