# Blender v2.79 (sub 0) OBJ File: 'alphabet.blend'
# www.blender.org
mtllib '.mtl
o a_Text.037
v -0.042379 0.050000 -0.275279
v 0.042751 0.050000 -0.275279
v 0.031970 0.050000 -0.100929
v -0.031970 0.050000 -0.100929
v -0.042379 -0.050000 -0.275279
v 0.042751 -0.050000 -0.275279
v 0.031970 -0.050000 -0.100929
v -0.031970 -0.050000 -0.100929
v -0.042379 -0.050000 -0.275279
v -0.054055 -0.047053 -0.286279
v -0.062603 -0.039000 -0.294331
v -0.065732 -0.028000 -0.297279
v 0.042751 -0.050000 -0.275279
v 0.054452 -0.047053 -0.286279
v 0.063018 -0.039000 -0.294331
v 0.066153 -0.028000 -0.297279
v 0.031970 -0.050000 -0.100929
v 0.042311 -0.047053 -0.089929
v 0.049881 -0.039000 -0.081877
v 0.052652 -0.028000 -0.078929
v -0.031970 -0.050000 -0.100929
v -0.042333 -0.047053 -0.089929
v -0.049919 -0.039000 -0.081877
v -0.052696 -0.028000 -0.078929
v -0.065732 -0.028000 -0.297279
v -0.065732 0.028000 -0.297279
v 0.066153 -0.028000 -0.297279
v 0.066153 0.028000 -0.297279
v 0.052652 -0.028000 -0.078929
v 0.052652 0.028000 -0.078929
v -0.052696 -0.028000 -0.078929
v -0.052696 0.028000 -0.078929
v -0.065732 0.028000 -0.297279
v -0.062603 0.039000 -0.294331
v -0.054055 0.047053 -0.286279
v -0.042379 0.050000 -0.275279
v 0.066153 0.028000 -0.297279
v 0.063018 0.039000 -0.294331
v 0.054452 0.047053 -0.286279
v 0.042751 0.050000 -0.275279
v 0.052652 0.028000 -0.078929
v 0.049881 0.039000 -0.081877
v 0.042311 0.047053 -0.089929
v 0.031970 0.050000 -0.100929
v -0.052696 0.028000 -0.078929
v -0.049919 0.039000 -0.081877
v -0.042333 0.047053 -0.089929
v -0.031970 0.050000 -0.100929
vn 0.0000 1.0000 0.0000
vn 0.0000 -1.0000 -0.0000
vn -0.3377 -0.8859 -0.3181
vn 0.3378 -0.8860 -0.3175
vn 0.1315 -0.9836 -0.1236
vn -0.1315 -0.9835 -0.1239
vn -0.6023 -0.5614 -0.5674
vn 0.6028 -0.5617 -0.5666
vn -0.6779 -0.3639 -0.6387
vn 0.6785 -0.3643 -0.6378
vn 0.3275 -0.8783 0.3483
vn 0.1312 -0.9814 0.1396
vn 0.5733 -0.5473 0.6098
vn 0.6428 -0.3451 0.6838
vn -0.3277 -0.8784 0.3478
vn -0.1313 -0.9815 0.1393
vn -0.5738 -0.5475 0.6091
vn -0.6435 -0.3454 0.6830
vn -0.7279 0.0000 -0.6857
vn 0.7286 0.0000 -0.6849
vn 0.6849 0.0000 0.7286
vn -0.6857 0.0000 0.7279
vn -0.6023 0.5614 -0.5674
vn 0.6028 0.5617 -0.5666
vn 0.6785 0.3643 -0.6378
vn -0.6779 0.3639 -0.6387
vn -0.3377 0.8859 -0.3181
vn 0.3378 0.8860 -0.3175
vn -0.1315 0.9835 -0.1239
vn 0.1315 0.9836 -0.1236
vn 0.5733 0.5473 0.6098
vn 0.6428 0.3451 0.6838
vn 0.3275 0.8783 0.3483
vn 0.1312 0.9814 0.1396
vn -0.5738 0.5475 0.6091
vn -0.6435 0.3454 0.6830
vn -0.3277 0.8784 0.3478
vn -0.1313 0.9815 0.1393
usemtl None
s off
f 4//1 2//1 1//1
f 4//1 3//1 2//1
f 6//2 8//2 5//2
f 7//2 8//2 6//2
s 1
f 10//3 14//4 13//5 9//6
f 11//7 15//8 14//4 10//3
f 12//9 16//10 15//8 11//7
f 14//4 18//11 17//12 13//5
f 15//8 19//13 18//11 14//4
f 16//10 20//14 19//13 15//8
f 18//11 22//15 21//16 17//12
f 19//13 23//17 22//15 18//11
f 20//14 24//18 23//17 19//13
f 22//15 10//3 9//6 21//16
f 23//17 11//7 10//3 22//15
f 24//18 12//9 11//7 23//17
f 26//19 28//20 27//20 25//19
f 28//20 30//21 29//21 27//20
f 30//21 32//22 31//22 29//21
f 32//22 26//19 25//19 31//22
f 34//23 38//24 37//25 33//26
f 35//27 39//28 38//24 34//23
f 36//29 40//30 39//28 35//27
f 38//24 42//31 41//32 37//25
f 39//28 43//33 42//31 38//24
f 40//30 44//34 43//33 39//28
f 42//31 46//35 45//36 41//32
f 43//33 47//37 46//35 42//31
f 44//34 48//38 47//37 43//33
f 46//35 34//23 33//26 45//36
f 47//37 35//27 34//23 46//35
f 48//38 36//29 35//27 47//37
