# Blender v2.79 (sub 0) OBJ File: 'alphabet.blend'
# www.blender.org
mtllib e.mtl
o a_Text.037
v 0.141636 0.050000 0.193494
v 0.141636 0.050000 0.250000
v -0.134572 0.050000 0.250000
v -0.134572 0.050000 -0.235874
v 0.141636 0.050000 -0.235874
v 0.141636 0.050000 -0.180112
v -0.068401 0.050000 -0.180112
v -0.068401 0.050000 -0.029554
v 0.133457 0.050000 -0.029554
v 0.133457 0.050000 0.026208
v -0.068401 0.050000 0.026208
v -0.068401 0.050000 0.193494
v 0.141636 -0.050000 0.193494
v 0.141636 -0.050000 0.250000
v -0.134572 -0.050000 0.250000
v -0.134572 -0.050000 -0.235874
v 0.141636 -0.050000 -0.235874
v 0.141636 -0.050000 -0.180112
v -0.068401 -0.050000 -0.180112
v -0.068401 -0.050000 -0.029554
v 0.133457 -0.050000 -0.029554
v 0.133457 -0.050000 0.026208
v -0.068401 -0.050000 0.026208
v -0.068401 -0.050000 0.193494
v 0.141636 -0.050000 0.193494
v 0.152636 -0.047053 0.182494
v 0.160688 -0.039000 0.174442
v 0.163636 -0.028000 0.171494
v 0.141636 -0.050000 0.250000
v 0.152636 -0.047053 0.261000
v 0.160688 -0.039000 0.269053
v 0.163636 -0.028000 0.272000
v -0.134572 -0.050000 0.250000
v -0.145572 -0.047053 0.261000
v -0.153625 -0.039000 0.269053
v -0.156572 -0.028000 0.272000
v -0.134572 -0.050000 -0.235874
v -0.145572 -0.047053 -0.246874
v -0.153625 -0.039000 -0.254926
v -0.156572 -0.028000 -0.257874
v 0.141636 -0.050000 -0.235874
v 0.152636 -0.047053 -0.246874
v 0.160688 -0.039000 -0.254926
v 0.163636 -0.028000 -0.257874
v 0.141636 -0.050000 -0.180112
v 0.152636 -0.047053 -0.169112
v 0.160688 -0.039000 -0.161059
v 0.163636 -0.028000 -0.158112
v -0.068401 -0.050000 -0.180112
v -0.057401 -0.047053 -0.169112
v -0.049349 -0.039000 -0.161059
v -0.046401 -0.028000 -0.158112
v -0.068401 -0.050000 -0.029554
v -0.057401 -0.047053 -0.040554
v -0.049349 -0.039000 -0.048606
v -0.046401 -0.028000 -0.051554
v 0.133457 -0.050000 -0.029554
v 0.144457 -0.047053 -0.040554
v 0.152510 -0.039000 -0.048606
v 0.155457 -0.028000 -0.051554
v 0.133457 -0.050000 0.026208
v 0.144457 -0.047053 0.037208
v 0.152510 -0.039000 0.045261
v 0.155457 -0.028000 0.048208
v -0.068401 -0.050000 0.026208
v -0.057401 -0.047053 0.037208
v -0.049349 -0.039000 0.045261
v -0.046401 -0.028000 0.048208
v -0.068401 -0.050000 0.193494
v -0.057401 -0.047053 0.182494
v -0.049349 -0.039000 0.174442
v -0.046401 -0.028000 0.171494
v 0.163636 -0.028000 0.171494
v 0.163636 0.028000 0.171494
v 0.163636 -0.028000 0.272000
v 0.163636 0.028000 0.272000
v -0.156572 -0.028000 0.272000
v -0.156572 0.028000 0.272000
v -0.156572 -0.028000 -0.257874
v -0.156572 0.028000 -0.257874
v 0.163636 -0.028000 -0.257874
v 0.163636 0.028000 -0.257874
v 0.163636 -0.028000 -0.158112
v 0.163636 0.028000 -0.158112
v -0.046401 -0.028000 -0.158112
v -0.046401 0.028000 -0.158112
v -0.046401 -0.028000 -0.051554
v -0.046401 0.028000 -0.051554
v 0.155457 -0.028000 -0.051554
v 0.155457 0.028000 -0.051554
v 0.155457 -0.028000 0.048208
v 0.155457 0.028000 0.048208
v -0.046401 -0.028000 0.048208
v -0.046401 0.028000 0.048208
v -0.046401 -0.028000 0.171494
v -0.046401 0.028000 0.171494
v 0.163636 0.028000 0.171494
v 0.160688 0.039000 0.174442
v 0.152636 0.047053 0.182494
v 0.141636 0.050000 0.193494
v 0.163636 0.028000 0.272000
v 0.160688 0.039000 0.269053
v 0.152636 0.047053 0.261000
v 0.141636 0.050000 0.250000
v -0.156572 0.028000 0.272000
v -0.153625 0.039000 0.269053
v -0.145572 0.047053 0.261000
v -0.134572 0.050000 0.250000
v -0.156572 0.028000 -0.257874
v -0.153625 0.039000 -0.254926
v -0.145572 0.047053 -0.246874
v -0.134572 0.050000 -0.235874
v 0.163636 0.028000 -0.257874
v 0.160688 0.039000 -0.254926
v 0.152636 0.047053 -0.246874
v 0.141636 0.050000 -0.235874
v 0.163636 0.028000 -0.158112
v 0.160688 0.039000 -0.161059
v 0.152636 0.047053 -0.169112
v 0.141636 0.050000 -0.180112
v -0.046401 0.028000 -0.158112
v -0.049349 0.039000 -0.161059
v -0.057401 0.047053 -0.169112
v -0.068401 0.050000 -0.180112
v -0.046401 0.028000 -0.051554
v -0.049349 0.039000 -0.048606
v -0.057401 0.047053 -0.040554
v -0.068401 0.050000 -0.029554
v 0.155457 0.028000 -0.051554
v 0.152510 0.039000 -0.048606
v 0.144457 0.047053 -0.040554
v 0.133457 0.050000 -0.029554
v 0.155457 0.028000 0.048208
v 0.152510 0.039000 0.045261
v 0.144457 0.047053 0.037208
v 0.133457 0.050000 0.026208
v -0.046401 0.028000 0.048208
v -0.049349 0.039000 0.045261
v -0.057401 0.047053 0.037208
v -0.068401 0.050000 0.026208
v -0.046401 0.028000 0.171494
v -0.049349 0.039000 0.174442
v -0.057401 0.047053 0.182494
v -0.068401 0.050000 0.193494
vn 0.0000 1.0000 0.0000
vn 0.0000 -1.0000 0.0000
vn 0.3332 -0.8820 -0.3332
vn 0.3332 -0.8820 0.3332
vn 0.1316 -0.9825 0.1316
vn 0.1316 -0.9825 -0.1316
vn 0.5885 -0.5542 -0.5885
vn 0.5885 -0.5542 0.5885
vn 0.6612 -0.3543 -0.6612
vn 0.6612 -0.3543 0.6612
vn -0.3332 -0.8820 0.3332
vn -0.1316 -0.9825 0.1316
vn -0.5885 -0.5542 0.5885
vn -0.6612 -0.3543 0.6612
vn -0.3332 -0.8820 -0.3332
vn -0.1316 -0.9825 -0.1316
vn -0.5885 -0.5542 -0.5885
vn -0.6612 -0.3543 -0.6612
vn 0.2085 -0.9555 0.2085
vn 0.5135 -0.6875 0.5135
vn 0.2085 -0.9555 -0.2085
vn 0.5135 -0.6875 -0.5135
vn 0.7071 0.0000 -0.7071
vn 0.7071 0.0000 0.7071
vn -0.7071 0.0000 0.7071
vn -0.7071 0.0000 -0.7071
vn 0.5885 0.5542 -0.5885
vn 0.5885 0.5542 0.5885
vn 0.6612 0.3543 0.6612
vn 0.6612 0.3543 -0.6612
vn 0.3332 0.8820 -0.3332
vn 0.3332 0.8820 0.3332
vn 0.1316 0.9825 -0.1316
vn 0.1316 0.9825 0.1316
vn -0.5885 0.5542 0.5885
vn -0.6612 0.3543 0.6612
vn -0.3332 0.8820 0.3332
vn -0.1316 0.9825 0.1316
vn -0.5885 0.5542 -0.5885
vn -0.6612 0.3543 -0.6612
vn -0.3332 0.8820 -0.3332
vn -0.1316 0.9825 -0.1316
vn 0.5135 0.6875 0.5135
vn 0.2085 0.9555 0.2085
vn 0.5135 0.6875 -0.5135
vn 0.2085 0.9555 -0.2085
usemtl None
s off
f 3//1 7//1 4//1
f 7//1 5//1 4//1
f 7//1 6//1 5//1
f 3//1 8//1 7//1
f 3//1 11//1 8//1
f 11//1 9//1 8//1
f 11//1 10//1 9//1
f 3//1 12//1 11//1
f 3//1 1//1 12//1
f 3//1 2//1 1//1
f 19//2 15//2 16//2
f 17//2 19//2 16//2
f 18//2 19//2 17//2
f 20//2 15//2 19//2
f 23//2 15//2 20//2
f 21//2 23//2 20//2
f 22//2 23//2 21//2
f 24//2 15//2 23//2
f 13//2 15//2 24//2
f 14//2 15//2 13//2
s 1
f 26//3 30//4 29//5 25//6
f 27//7 31//8 30//4 26//3
f 28//9 32//10 31//8 27//7
f 30//4 34//11 33//12 29//5
f 31//8 35//13 34//11 30//4
f 32//10 36//14 35//13 31//8
f 34//11 38//15 37//16 33//12
f 35//13 39//17 38//15 34//11
f 36//14 40//18 39//17 35//13
f 38//15 42//3 41//6 37//16
f 39//17 43//7 42//3 38//15
f 40//18 44//9 43//7 39//17
f 42//3 46//4 45//5 41//6
f 43//7 47//8 46//4 42//3
f 44//9 48//10 47//8 43//7
f 46//4 50//19 49//5 45//5
f 47//8 51//20 50//19 46//4
f 48//10 52//10 51//20 47//8
f 50//19 54//21 53//6 49//5
f 51//20 55//22 54//21 50//19
f 52//10 56//9 55//22 51//20
f 54//21 58//3 57//6 53//6
f 55//22 59//7 58//3 54//21
f 56//9 60//9 59//7 55//22
f 58//3 62//4 61//5 57//6
f 59//7 63//8 62//4 58//3
f 60//9 64//10 63//8 59//7
f 62//4 66//19 65//5 61//5
f 63//8 67//20 66//19 62//4
f 64//10 68//10 67//20 63//8
f 66//19 70//21 69//6 65//5
f 67//20 71//22 70//21 66//19
f 68//10 72//9 71//22 67//20
f 70//21 26//3 25//6 69//6
f 71//22 27//7 26//3 70//21
f 72//9 28//9 27//7 71//22
f 74//23 76//24 75//24 73//23
f 76//24 78//25 77//25 75//24
f 78//25 80//26 79//26 77//25
f 80//26 82//23 81//23 79//26
f 82//23 84//24 83//24 81//23
f 84//24 86//24 85//24 83//24
f 86//24 88//23 87//23 85//24
f 88//23 90//23 89//23 87//23
f 90//23 92//24 91//24 89//23
f 92//24 94//24 93//24 91//24
f 94//24 96//23 95//23 93//24
f 96//23 74//23 73//23 95//23
f 98//27 102//28 101//29 97//30
f 99//31 103//32 102//28 98//27
f 100//33 104//34 103//32 99//31
f 102//28 106//35 105//36 101//29
f 103//32 107//37 106//35 102//28
f 104//34 108//38 107//37 103//32
f 106//35 110//39 109//40 105//36
f 107//37 111//41 110//39 106//35
f 108//38 112//42 111//41 107//37
f 110//39 114//27 113//30 109//40
f 111//41 115//31 114//27 110//39
f 112//42 116//33 115//31 111//41
f 114//27 118//28 117//29 113//30
f 115//31 119//32 118//28 114//27
f 116//33 120//34 119//32 115//31
f 118//28 122//43 121//29 117//29
f 119//32 123//44 122//43 118//28
f 120//34 124//34 123//44 119//32
f 122//43 126//45 125//30 121//29
f 123//44 127//46 126//45 122//43
f 124//34 128//33 127//46 123//44
f 126//45 130//27 129//30 125//30
f 127//46 131//31 130//27 126//45
f 128//33 132//33 131//31 127//46
f 130//27 134//28 133//29 129//30
f 131//31 135//32 134//28 130//27
f 132//33 136//34 135//32 131//31
f 134//28 138//43 137//29 133//29
f 135//32 139//44 138//43 134//28
f 136//34 140//34 139//44 135//32
f 138//43 142//45 141//30 137//29
f 139//44 143//46 142//45 138//43
f 140//34 144//33 143//46 139//44
f 142//45 98//27 97//30 141//30
f 143//46 99//31 98//27 142//45
f 144//33 100//33 99//31 143//46
