# Blender v2.79 (sub 0) OBJ File: 'alphabet.blend'
# www.blender.org
mtllib z.mtl
o a_Text.037
v 0.162825 0.050000 -0.235874
v 0.162825 0.050000 -0.183829
v -0.085130 0.050000 0.188290
v 0.167658 0.050000 0.188290
v 0.167658 0.050000 0.250000
v -0.168030 0.050000 0.250000
v -0.168030 0.050000 0.200558
v 0.081413 0.050000 -0.175651
v -0.161338 0.050000 -0.175651
v -0.161338 0.050000 -0.235874
v 0.162825 -0.050000 -0.235874
v 0.162825 -0.050000 -0.183829
v -0.085130 -0.050000 0.188290
v 0.167658 -0.050000 0.188290
v 0.167658 -0.050000 0.250000
v -0.168030 -0.050000 0.250000
v -0.168030 -0.050000 0.200558
v 0.081413 -0.050000 -0.175651
v -0.161338 -0.050000 -0.175651
v -0.161338 -0.050000 -0.235874
v 0.162825 -0.050000 -0.235874
v 0.173825 -0.047053 -0.246874
v 0.181878 -0.039000 -0.254926
v 0.184825 -0.028000 -0.257874
v 0.162825 -0.050000 -0.183829
v 0.173825 -0.047053 -0.180500
v 0.181878 -0.039000 -0.178063
v 0.184825 -0.028000 -0.177171
v -0.085130 -0.050000 0.188290
v -0.064582 -0.047053 0.177290
v -0.049540 -0.039000 0.169237
v -0.044034 -0.028000 0.166290
v 0.167658 -0.050000 0.188290
v 0.178658 -0.047053 0.177290
v 0.186711 -0.039000 0.169237
v 0.189658 -0.028000 0.166290
v 0.167658 -0.050000 0.250000
v 0.178658 -0.047053 0.261000
v 0.186711 -0.039000 0.269053
v 0.189658 -0.028000 0.272000
v -0.168030 -0.050000 0.250000
v -0.179030 -0.047053 0.261000
v -0.187082 -0.039000 0.269053
v -0.190030 -0.028000 0.272000
v -0.168030 -0.050000 0.200558
v -0.179030 -0.047053 0.197242
v -0.187082 -0.039000 0.194815
v -0.190030 -0.028000 0.193927
v 0.081413 -0.050000 -0.175651
v 0.060921 -0.047053 -0.164651
v 0.045920 -0.039000 -0.156598
v 0.040429 -0.028000 -0.153651
v -0.161338 -0.050000 -0.175651
v -0.172338 -0.047053 -0.164651
v -0.180391 -0.039000 -0.156598
v -0.183338 -0.028000 -0.153651
v -0.161338 -0.050000 -0.235874
v -0.172338 -0.047053 -0.246874
v -0.180391 -0.039000 -0.254926
v -0.183338 -0.028000 -0.257874
v 0.184825 -0.028000 -0.257874
v 0.184825 0.028000 -0.257874
v 0.184825 -0.028000 -0.177171
v 0.184825 0.028000 -0.177171
v -0.044034 -0.028000 0.166290
v -0.044034 0.028000 0.166290
v 0.189658 -0.028000 0.166290
v 0.189658 0.028000 0.166290
v 0.189658 -0.028000 0.272000
v 0.189658 0.028000 0.272000
v -0.190030 -0.028000 0.272000
v -0.190030 0.028000 0.272000
v -0.190030 -0.028000 0.193927
v -0.190030 0.028000 0.193927
v 0.040429 -0.028000 -0.153651
v 0.040429 0.028000 -0.153651
v -0.183338 -0.028000 -0.153651
v -0.183338 0.028000 -0.153651
v -0.183338 -0.028000 -0.257874
v -0.183338 0.028000 -0.257874
v 0.184825 0.028000 -0.257874
v 0.181878 0.039000 -0.254926
v 0.173825 0.047053 -0.246874
v 0.162825 0.050000 -0.235874
v 0.184825 0.028000 -0.177171
v 0.181878 0.039000 -0.178063
v 0.173825 0.047053 -0.180500
v 0.162825 0.050000 -0.183829
v -0.044034 0.028000 0.166290
v -0.049540 0.039000 0.169237
v -0.064582 0.047053 0.177290
v -0.085130 0.050000 0.188290
v 0.189658 0.028000 0.166290
v 0.186711 0.039000 0.169237
v 0.178658 0.047053 0.177290
v 0.167658 0.050000 0.188290
v 0.189658 0.028000 0.272000
v 0.186711 0.039000 0.269053
v 0.178658 0.047053 0.261000
v 0.167658 0.050000 0.250000
v -0.190030 0.028000 0.272000
v -0.187082 0.039000 0.269053
v -0.179030 0.047053 0.261000
v -0.168030 0.050000 0.250000
v -0.190030 0.028000 0.193927
v -0.187082 0.039000 0.194815
v -0.179030 0.047053 0.197242
v -0.168030 0.050000 0.200558
v 0.040429 0.028000 -0.153651
v 0.045920 0.039000 -0.156598
v 0.060921 0.047053 -0.164651
v 0.081413 0.050000 -0.175651
v -0.183338 0.028000 -0.153651
v -0.180391 0.039000 -0.156598
v -0.172338 0.047053 -0.164651
v -0.161338 0.050000 -0.175651
v -0.183338 0.028000 -0.257874
v -0.180391 0.039000 -0.254926
v -0.172338 0.047053 -0.246874
v -0.161338 0.050000 -0.235874
vn 0.0000 1.0000 0.0000
vn 0.0000 -1.0000 0.0000
vn 0.3332 -0.8820 -0.3332
vn 0.4979 -0.8540 0.1507
vn 0.2378 -0.9686 0.0719
vn 0.1316 -0.9825 -0.1316
vn 0.5885 -0.5542 -0.5885
vn 0.8323 -0.4938 0.2519
vn 0.6612 -0.3543 -0.6612
vn 0.9217 -0.2696 0.2789
vn 0.1555 -0.9843 -0.0832
vn 0.1106 -0.9921 -0.0592
vn 0.4826 -0.8369 -0.2583
vn 0.7667 -0.4937 -0.4104
vn 0.3332 -0.8820 0.3332
vn 0.1316 -0.9825 0.1316
vn 0.5885 -0.5542 0.5885
vn 0.6612 -0.3543 0.6612
vn -0.3332 -0.8820 0.3332
vn -0.1316 -0.9825 0.1316
vn -0.5885 -0.5542 0.5885
vn -0.6612 -0.3543 0.6612
vn -0.4981 -0.8540 -0.1501
vn -0.2379 -0.9686 -0.0717
vn -0.8326 -0.4938 -0.2509
vn -0.9220 -0.2695 -0.2779
vn -0.1558 -0.9842 0.0836
vn -0.1108 -0.9920 0.0595
vn -0.4831 -0.8362 0.2593
vn -0.7666 -0.4929 0.4115
vn -0.3332 -0.8820 -0.3332
vn -0.1316 -0.9825 -0.1316
vn -0.5885 -0.5542 -0.5885
vn -0.6612 -0.3544 -0.6612
vn 0.7071 0.0000 -0.7071
vn 0.9571 0.0000 0.2897
vn 0.8816 0.0000 -0.4719
vn 0.7071 0.0000 0.7071
vn -0.7071 0.0000 0.7071
vn -0.9574 0.0000 -0.2886
vn -0.8811 0.0000 0.4729
vn -0.7071 0.0000 -0.7071
vn 0.5885 0.5542 -0.5885
vn 0.8323 0.4938 0.2519
vn 0.9217 0.2696 0.2789
vn 0.6612 0.3543 -0.6612
vn 0.3332 0.8820 -0.3332
vn 0.4979 0.8540 0.1507
vn 0.1316 0.9825 -0.1316
vn 0.2378 0.9686 0.0719
vn 0.4826 0.8369 -0.2583
vn 0.7667 0.4937 -0.4104
vn 0.1555 0.9843 -0.0832
vn 0.1106 0.9921 -0.0592
vn 0.5885 0.5542 0.5885
vn 0.6612 0.3543 0.6612
vn 0.3332 0.8820 0.3332
vn 0.1316 0.9825 0.1316
vn -0.5885 0.5542 0.5885
vn -0.6612 0.3543 0.6612
vn -0.3332 0.8820 0.3332
vn -0.1316 0.9825 0.1316
vn -0.8326 0.4938 -0.2509
vn -0.9220 0.2695 -0.2779
vn -0.4981 0.8540 -0.1501
vn -0.2379 0.9686 -0.0717
vn -0.4831 0.8362 0.2593
vn -0.7666 0.4929 0.4115
vn -0.1558 0.9842 0.0836
vn -0.1108 0.9920 0.0595
vn -0.5885 0.5542 -0.5885
vn -0.6612 0.3544 -0.6612
vn -0.3332 0.8820 -0.3332
vn -0.1316 0.9825 -0.1316
usemtl None
s off
f 9//1 1//1 10//1
f 9//1 2//1 1//1
f 9//1 8//1 2//1
f 8//1 3//1 2//1
f 7//1 3//1 8//1
f 7//1 4//1 3//1
f 7//1 5//1 4//1
f 6//1 5//1 7//1
f 11//2 19//2 20//2
f 12//2 19//2 11//2
f 18//2 19//2 12//2
f 13//2 18//2 12//2
f 13//2 17//2 18//2
f 14//2 17//2 13//2
f 15//2 17//2 14//2
f 15//2 16//2 17//2
s 1
f 22//3 26//4 25//5 21//6
f 23//7 27//8 26//4 22//3
f 24//9 28//10 27//8 23//7
f 26//4 30//11 29//12 25//5
f 27//8 31//13 30//11 26//4
f 28//10 32//14 31//13 27//8
f 30//11 34//3 33//6 29//12
f 31//13 35//7 34//3 30//11
f 32//14 36//9 35//7 31//13
f 34//3 38//15 37//16 33//6
f 35//7 39//17 38//15 34//3
f 36//9 40//18 39//17 35//7
f 38//15 42//19 41//20 37//16
f 39//17 43//21 42//19 38//15
f 40//18 44//22 43//21 39//17
f 42//19 46//23 45//24 41//20
f 43//21 47//25 46//23 42//19
f 44//22 48//26 47//25 43//21
f 46//23 50//27 49//28 45//24
f 47//25 51//29 50//27 46//23
f 48//26 52//30 51//29 47//25
f 50//27 54//19 53//20 49//28
f 51//29 55//21 54//19 50//27
f 52//30 56//22 55//21 51//29
f 54//19 58//31 57//32 53//20
f 55//21 59//33 58//31 54//19
f 56//22 60//34 59//33 55//21
f 58//31 22//3 21//6 57//32
f 59//33 23//7 22//3 58//31
f 60//34 24//9 23//7 59//33
f 62//35 64//36 63//36 61//35
f 64//36 66//37 65//37 63//36
f 66//37 68//35 67//35 65//37
f 68//35 70//38 69//38 67//35
f 70//38 72//39 71//39 69//38
f 72//39 74//40 73//40 71//39
f 74//40 76//41 75//41 73//40
f 76//41 78//39 77//39 75//41
f 78//39 80//42 79//42 77//39
f 80//42 62//35 61//35 79//42
f 82//43 86//44 85//45 81//46
f 83//47 87//48 86//44 82//43
f 84//49 88//50 87//48 83//47
f 86//44 90//51 89//52 85//45
f 87//48 91//53 90//51 86//44
f 88//50 92//54 91//53 87//48
f 90//51 94//43 93//46 89//52
f 91//53 95//47 94//43 90//51
f 92//54 96//49 95//47 91//53
f 94//43 98//55 97//56 93//46
f 95//47 99//57 98//55 94//43
f 96//49 100//58 99//57 95//47
f 98//55 102//59 101//60 97//56
f 99//57 103//61 102//59 98//55
f 100//58 104//62 103//61 99//57
f 102//59 106//63 105//64 101//60
f 103//61 107//65 106//63 102//59
f 104//62 108//66 107//65 103//61
f 106//63 110//67 109//68 105//64
f 107//65 111//69 110//67 106//63
f 108//66 112//70 111//69 107//65
f 110//67 114//59 113//60 109//68
f 111//69 115//61 114//59 110//67
f 112//70 116//62 115//61 111//69
f 114//59 118//71 117//72 113//60
f 115//61 119//73 118//71 114//59
f 116//62 120//74 119//73 115//61
f 118//71 82//43 81//46 117//72
f 119//73 83//47 82//43 118//71
f 120//74 84//49 83//47 119//73
