# This file uses centimeters as units for non-parametric coordinates.

mtllib cone.mtl
g default
v 0.461940 -0.500000 -0.191341
v 0.353554 -0.500000 -0.353553
v 0.191342 -0.500000 -0.461940
v 0.000000 -0.500000 -0.500000
v -0.191341 -0.500000 -0.461940
v -0.353553 -0.500000 -0.353554
v -0.461940 -0.500000 -0.191342
v -0.500000 -0.500000 -0.000000
v -0.461940 -0.500000 0.191342
v -0.353553 -0.500000 0.353553
v -0.191342 -0.500000 0.461940
v -0.000000 -0.500000 0.500000
v 0.191342 -0.500000 0.461940
v 0.353553 -0.500000 0.353553
v 0.461940 -0.500000 0.191342
v 0.500000 -0.500000 0.000000
v 0.000000 0.500000 0.000000
vt 0.730970 0.154329
vt 0.676777 0.073223
vt 0.595671 0.019030
vt 0.500000 0.000000
vt 0.404329 0.019030
vt 0.323223 0.073223
vt 0.269030 0.154329
vt 0.250000 0.250000
vt 0.269030 0.345671
vt 0.323223 0.426777
vt 0.404329 0.480970
vt 0.500000 0.500000
vt 0.595671 0.480970
vt 0.676777 0.426777
vt 0.730970 0.345671
vt 0.750000 0.250000
vt 0.250000 0.500000
vt 0.281250 0.500000
vt 0.312500 0.500000
vt 0.343750 0.500000
vt 0.375000 0.500000
vt 0.406250 0.500000
vt 0.437500 0.500000
vt 0.468750 0.500000
vt 0.500000 0.500000
vt 0.531250 0.500000
vt 0.562500 0.500000
vt 0.593750 0.500000
vt 0.625000 0.500000
vt 0.656250 0.500000
vt 0.687500 0.500000
vt 0.718750 0.500000
vt 0.750000 0.500000
vt 0.500000 1.000000
vn 0.000000 -1.000000 0.000000
vn 0.000000 -1.000000 0.000000
vn 0.000000 -1.000000 0.000000
vn 0.000000 -1.000000 0.000000
vn 0.000000 -1.000000 0.000000
vn 0.000000 -1.000000 0.000000
vn 0.000000 -1.000000 0.000000
vn 0.000000 -1.000000 0.000000
vn 0.000000 -1.000000 0.000000
vn 0.000000 -1.000000 0.000000
vn 0.000000 -1.000000 0.000000
vn 0.000000 -1.000000 0.000000
vn 0.000000 -1.000000 0.000000
vn 0.000000 -1.000000 0.000000
vn 0.000000 -1.000000 0.000000
vn 0.000000 -1.000000 0.000000
vn 0.746536 0.440300 -0.498819
vn 0.746536 0.440300 -0.498819
vn 0.746536 0.440299 -0.498819
vn 0.498820 0.440300 -0.746536
vn 0.498820 0.440300 -0.746536
vn 0.498820 0.440299 -0.746536
vn 0.175163 0.440300 -0.880599
vn 0.175163 0.440300 -0.880599
vn 0.175163 0.440300 -0.880599
vn -0.175162 0.440300 -0.880599
vn -0.175162 0.440300 -0.880599
vn -0.175162 0.440300 -0.880599
vn -0.498819 0.440299 -0.746536
vn -0.498819 0.440300 -0.746536
vn -0.498819 0.440300 -0.746536
vn -0.746536 0.440300 -0.498820
vn -0.746536 0.440300 -0.498820
vn -0.746536 0.440300 -0.498820
vn -0.880599 0.440299 -0.175162
vn -0.880599 0.440299 -0.175162
vn -0.880599 0.440299 -0.175162
vn -0.880599 0.440300 0.175162
vn -0.880599 0.440300 0.175162
vn -0.880599 0.440300 0.175162
vn -0.746536 0.440300 0.498819
vn -0.746536 0.440300 0.498819
vn -0.746536 0.440300 0.498819
vn -0.498819 0.440299 0.746536
vn -0.498819 0.440300 0.746536
vn -0.498819 0.440300 0.746536
vn -0.175162 0.440300 0.880599
vn -0.175162 0.440300 0.880599
vn -0.175162 0.440300 0.880599
vn 0.175162 0.440300 0.880599
vn 0.175162 0.440300 0.880599
vn 0.175162 0.440300 0.880599
vn 0.498819 0.440299 0.746536
vn 0.498819 0.440299 0.746536
vn 0.498819 0.440299 0.746536
vn 0.746536 0.440300 0.498819
vn 0.746536 0.440300 0.498819
vn 0.746536 0.440300 0.498819
vn 0.880599 0.440300 0.175162
vn 0.880599 0.440300 0.175162
vn 0.880599 0.440300 0.175162
vn 0.880599 0.440300 -0.175162
vn 0.880599 0.440300 -0.175162
vn 0.880599 0.440300 -0.175162
s off
g pCone1
usemtl initialShadingGroup
f 1/1/1 16/16/2 15/15/3 14/14/4 13/13/5 12/12/6 11/11/7 10/10/8 9/9/9 8/8/10 7/7/11 6/6/12 5/5/13 4/4/14 3/3/15 2/2/16
f 1/17/17 2/18/18 17/34/19
f 2/18/20 3/19/21 17/34/22
f 3/19/23 4/20/24 17/34/25
f 4/20/26 5/21/27 17/34/28
f 5/21/29 6/22/30 17/34/31
f 6/22/32 7/23/33 17/34/34
f 7/23/35 8/24/36 17/34/37
f 8/24/38 9/25/39 17/34/40
f 9/25/41 10/26/42 17/34/43
f 10/26/44 11/27/45 17/34/46
f 11/27/47 12/28/48 17/34/49
f 12/28/50 13/29/51 17/34/52
f 13/29/53 14/30/54 17/34/55
f 14/30/56 15/31/57 17/34/58
f 15/31/59 16/32/60 17/34/61
f 16/32/62 1/33/63 17/34/64
