# Blender v2.79 (sub 0) OBJ File: 'alphabet.blend'
# www.blender.org
mtllib i.mtl
o a_Text.037
v -0.033457 0.050000 0.193494
v -0.033457 0.050000 -0.180112
v -0.145353 0.050000 -0.180112
v -0.145353 0.050000 -0.235874
v 0.145353 0.050000 -0.235874
v 0.145353 0.050000 -0.180112
v 0.033457 0.050000 -0.180112
v 0.033457 0.050000 0.193494
v 0.145353 0.050000 0.193494
v 0.145353 0.050000 0.250000
v -0.145353 0.050000 0.250000
v -0.145353 0.050000 0.193494
v -0.033457 -0.050000 0.193494
v -0.033457 -0.050000 -0.180112
v -0.145353 -0.050000 -0.180112
v -0.145353 -0.050000 -0.235874
v 0.145353 -0.050000 -0.235874
v 0.145353 -0.050000 -0.180112
v 0.033457 -0.050000 -0.180112
v 0.033457 -0.050000 0.193494
v 0.145353 -0.050000 0.193494
v 0.145353 -0.050000 0.250000
v -0.145353 -0.050000 0.250000
v -0.145353 -0.050000 0.193494
v -0.033457 -0.050000 0.193494
v -0.044457 -0.047053 0.182494
v -0.052510 -0.039000 0.174442
v -0.055457 -0.028000 0.171494
v -0.033457 -0.050000 -0.180112
v -0.044457 -0.047053 -0.169112
v -0.052510 -0.039000 -0.161059
v -0.055457 -0.028000 -0.158112
v -0.145353 -0.050000 -0.180112
v -0.156353 -0.047053 -0.169112
v -0.164406 -0.039000 -0.161059
v -0.167353 -0.028000 -0.158112
v -0.145353 -0.050000 -0.235874
v -0.156353 -0.047053 -0.246874
v -0.164406 -0.039000 -0.254926
v -0.167353 -0.028000 -0.257874
v 0.145353 -0.050000 -0.235874
v 0.156353 -0.047053 -0.246874
v 0.164406 -0.039000 -0.254926
v 0.167353 -0.028000 -0.257874
v 0.145353 -0.050000 -0.180112
v 0.156353 -0.047053 -0.169112
v 0.164406 -0.039000 -0.161059
v 0.167353 -0.028000 -0.158112
v 0.033457 -0.050000 -0.180112
v 0.044457 -0.047053 -0.169112
v 0.052510 -0.039000 -0.161059
v 0.055457 -0.028000 -0.158112
v 0.033457 -0.050000 0.193494
v 0.044457 -0.047053 0.182494
v 0.052510 -0.039000 0.174442
v 0.055457 -0.028000 0.171494
v 0.145353 -0.050000 0.193494
v 0.156353 -0.047053 0.182494
v 0.164406 -0.039000 0.174442
v 0.167353 -0.028000 0.171494
v 0.145353 -0.050000 0.250000
v 0.156353 -0.047053 0.261000
v 0.164406 -0.039000 0.269053
v 0.167353 -0.028000 0.272000
v -0.145353 -0.050000 0.250000
v -0.156353 -0.047053 0.261000
v -0.164406 -0.039000 0.269053
v -0.167353 -0.028000 0.272000
v -0.145353 -0.050000 0.193494
v -0.156353 -0.047053 0.182494
v -0.164406 -0.039000 0.174442
v -0.167353 -0.028000 0.171494
v -0.055457 -0.028000 0.171494
v -0.055457 0.028000 0.171494
v -0.055457 -0.028000 -0.158112
v -0.055457 0.028000 -0.158112
v -0.167353 -0.028000 -0.158112
v -0.167353 0.028000 -0.158112
v -0.167353 -0.028000 -0.257874
v -0.167353 0.028000 -0.257874
v 0.167353 -0.028000 -0.257874
v 0.167353 0.028000 -0.257874
v 0.167353 -0.028000 -0.158112
v 0.167353 0.028000 -0.158112
v 0.055457 -0.028000 -0.158112
v 0.055457 0.028000 -0.158112
v 0.055457 -0.028000 0.171494
v 0.055457 0.028000 0.171494
v 0.167353 -0.028000 0.171494
v 0.167353 0.028000 0.171494
v 0.167353 -0.028000 0.272000
v 0.167353 0.028000 0.272000
v -0.167353 -0.028000 0.272000
v -0.167353 0.028000 0.272000
v -0.167353 -0.028000 0.171494
v -0.167353 0.028000 0.171494
v -0.055457 0.028000 0.171494
v -0.052510 0.039000 0.174442
v -0.044457 0.047053 0.182494
v -0.033457 0.050000 0.193494
v -0.055457 0.028000 -0.158112
v -0.052510 0.039000 -0.161059
v -0.044457 0.047053 -0.169112
v -0.033457 0.050000 -0.180112
v -0.167353 0.028000 -0.158112
v -0.164406 0.039000 -0.161059
v -0.156353 0.047053 -0.169112
v -0.145353 0.050000 -0.180112
v -0.167353 0.028000 -0.257874
v -0.164406 0.039000 -0.254926
v -0.156353 0.047053 -0.246874
v -0.145353 0.050000 -0.235874
v 0.167353 0.028000 -0.257874
v 0.164406 0.039000 -0.254926
v 0.156353 0.047053 -0.246874
v 0.145353 0.050000 -0.235874
v 0.167353 0.028000 -0.158112
v 0.164406 0.039000 -0.161059
v 0.156353 0.047053 -0.169112
v 0.145353 0.050000 -0.180112
v 0.055457 0.028000 -0.158112
v 0.052510 0.039000 -0.161059
v 0.044457 0.047053 -0.169112
v 0.033457 0.050000 -0.180112
v 0.055457 0.028000 0.171494
v 0.052510 0.039000 0.174442
v 0.044457 0.047053 0.182494
v 0.033457 0.050000 0.193494
v 0.167353 0.028000 0.171494
v 0.164406 0.039000 0.174442
v 0.156353 0.047053 0.182494
v 0.145353 0.050000 0.193494
v 0.167353 0.028000 0.272000
v 0.164406 0.039000 0.269053
v 0.156353 0.047053 0.261000
v 0.145353 0.050000 0.250000
v -0.167353 0.028000 0.272000
v -0.164406 0.039000 0.269053
v -0.156353 0.047053 0.261000
v -0.145353 0.050000 0.250000
v -0.167353 0.028000 0.171494
v -0.164406 0.039000 0.174442
v -0.156353 0.047053 0.182494
v -0.145353 0.050000 0.193494
vn 0.0000 1.0000 0.0000
vn 0.0000 0.0000 1.0000
vn 0.0000 -1.0000 0.0000
vn -0.2085 -0.9555 -0.2085
vn -0.2085 -0.9555 0.2085
vn -0.1316 -0.9825 0.1316
vn -0.1316 -0.9825 -0.1316
vn -0.5135 -0.6875 -0.5135
vn -0.5135 -0.6875 0.5135
vn -0.6612 -0.3543 -0.6612
vn -0.6612 -0.3543 0.6612
vn -0.3332 -0.8820 0.3332
vn -0.5885 -0.5542 0.5885
vn -0.3332 -0.8820 -0.3332
vn -0.5885 -0.5542 -0.5885
vn 0.3332 -0.8820 -0.3332
vn 0.1316 -0.9825 -0.1316
vn 0.5885 -0.5542 -0.5885
vn 0.6612 -0.3543 -0.6612
vn 0.3332 -0.8820 0.3332
vn 0.1316 -0.9825 0.1316
vn 0.5885 -0.5542 0.5885
vn 0.6612 -0.3543 0.6612
vn 0.2085 -0.9555 0.2085
vn 0.5135 -0.6875 0.5135
vn 0.2085 -0.9555 -0.2085
vn 0.5135 -0.6875 -0.5135
vn -0.7071 0.0000 -0.7071
vn -0.7071 0.0000 0.7071
vn 0.7071 0.0000 -0.7071
vn 0.7071 0.0000 0.7071
vn -0.5135 0.6875 -0.5135
vn -0.5135 0.6875 0.5135
vn -0.6612 0.3543 0.6612
vn -0.6612 0.3543 -0.6612
vn -0.2085 0.9555 -0.2085
vn -0.2085 0.9555 0.2085
vn -0.1316 0.9825 -0.1316
vn -0.1316 0.9825 0.1316
vn -0.5885 0.5542 0.5885
vn -0.3332 0.8820 0.3332
vn -0.5885 0.5542 -0.5885
vn -0.3332 0.8820 -0.3332
vn 0.5885 0.5542 -0.5885
vn 0.6612 0.3543 -0.6612
vn 0.3332 0.8820 -0.3332
vn 0.1316 0.9825 -0.1316
vn 0.5885 0.5542 0.5885
vn 0.6612 0.3543 0.6612
vn 0.3332 0.8820 0.3332
vn 0.1316 0.9825 0.1316
vn 0.5135 0.6875 0.5135
vn 0.2085 0.9555 0.2085
vn 0.5135 0.6875 -0.5135
vn 0.2085 0.9555 -0.2085
usemtl None
s off
f 3//1 5//1 4//1
f 3//1 6//1 5//1
f 2//2 6//2 3//2
f 1//1 7//1 2//1
f 7//2 6//2 2//2
f 1//1 8//1 7//1
f 11//1 1//1 12//1
f 11//1 8//1 1//1
f 11//1 9//1 8//1
f 11//1 10//1 9//1
f 17//3 15//3 16//3
f 18//3 15//3 17//3
f 18//2 14//2 15//2
f 19//3 13//3 14//3
f 18//2 19//2 14//2
f 20//3 13//3 19//3
f 13//3 23//3 24//3
f 20//3 23//3 13//3
f 21//3 23//3 20//3
f 22//3 23//3 21//3
s 1
f 26//4 30//5 29//6 25//7
f 27//8 31//9 30//5 26//4
f 28//10 32//11 31//9 27//8
f 30//5 34//12 33//6 29//6
f 31//9 35//13 34//12 30//5
f 32//11 36//11 35//13 31//9
f 34//12 38//14 37//7 33//6
f 35//13 39//15 38//14 34//12
f 36//11 40//10 39//15 35//13
f 38//14 42//16 41//17 37//7
f 39//15 43//18 42//16 38//14
f 40//10 44//19 43//18 39//15
f 42//16 46//20 45//21 41//17
f 43//18 47//22 46//20 42//16
f 44//19 48//23 47//22 43//18
f 46//20 50//24 49//21 45//21
f 47//22 51//25 50//24 46//20
f 48//23 52//23 51//25 47//22
f 50//24 54//26 53//17 49//21
f 51//25 55//27 54//26 50//24
f 52//23 56//19 55//27 51//25
f 54//26 58//16 57//17 53//17
f 55//27 59//18 58//16 54//26
f 56//19 60//19 59//18 55//27
f 58//16 62//20 61//21 57//17
f 59//18 63//22 62//20 58//16
f 60//19 64//23 63//22 59//18
f 62//20 66//12 65//6 61//21
f 63//22 67//13 66//12 62//20
f 64//23 68//11 67//13 63//22
f 66//12 70//14 69//7 65//6
f 67//13 71//15 70//14 66//12
f 68//11 72//10 71//15 67//13
f 70//14 26//4 25//7 69//7
f 71//15 27//8 26//4 70//14
f 72//10 28//10 27//8 71//15
f 74//28 76//29 75//29 73//28
f 76//29 78//29 77//29 75//29
f 78//29 80//28 79//28 77//29
f 80//28 82//30 81//30 79//28
f 82//30 84//31 83//31 81//30
f 84//31 86//31 85//31 83//31
f 86//31 88//30 87//30 85//31
f 88//30 90//30 89//30 87//30
f 90//30 92//31 91//31 89//30
f 92//31 94//29 93//29 91//31
f 94//29 96//28 95//28 93//29
f 96//28 74//28 73//28 95//28
f 98//32 102//33 101//34 97//35
f 99//36 103//37 102//33 98//32
f 100//38 104//39 103//37 99//36
f 102//33 106//40 105//34 101//34
f 103//37 107//41 106//40 102//33
f 104//39 108//39 107//41 103//37
f 106//40 110//42 109//35 105//34
f 107//41 111//43 110//42 106//40
f 108//39 112//38 111//43 107//41
f 110//42 114//44 113//45 109//35
f 111//43 115//46 114//44 110//42
f 112//38 116//47 115//46 111//43
f 114//44 118//48 117//49 113//45
f 115//46 119//50 118//48 114//44
f 116//47 120//51 119//50 115//46
f 118//48 122//52 121//49 117//49
f 119//50 123//53 122//52 118//48
f 120//51 124//51 123//53 119//50
f 122//52 126//54 125//45 121//49
f 123//53 127//55 126//54 122//52
f 124//51 128//47 127//55 123//53
f 126//54 130//44 129//45 125//45
f 127//55 131//46 130//44 126//54
f 128//47 132//47 131//46 127//55
f 130//44 134//48 133//49 129//45
f 131//46 135//50 134//48 130//44
f 132//47 136//51 135//50 131//46
f 134//48 138//40 137//34 133//49
f 135//50 139//41 138//40 134//48
f 136//51 140//39 139//41 135//50
f 138//40 142//42 141//35 137//34
f 139//41 143//43 142//42 138//40
f 140//39 144//38 143//43 139//41
f 142//42 98//32 97//35 141//35
f 143//43 99//36 98//32 142//42
f 144//38 100//38 99//36 143//43
