# Blender v2.79 (sub 0) OBJ File: 'alphabet.blend'
# www.blender.org
mtllib v.mtl
o a_Text.037
v 0.137175 0.050000 -0.235874
v 0.207807 0.050000 -0.235874
v 0.042751 0.050000 0.250000
v -0.046468 0.050000 0.250000
v -0.207807 0.050000 -0.235874
v -0.133085 0.050000 -0.235874
v -0.028253 0.050000 0.091636
v 0.001487 0.050000 0.187546
v 0.031970 0.050000 0.091636
v 0.137175 -0.050000 -0.235874
v 0.207807 -0.050000 -0.235874
v 0.042751 -0.050000 0.250000
v -0.046468 -0.050000 0.250000
v -0.207807 -0.050000 -0.235874
v -0.133085 -0.050000 -0.235874
v -0.028253 -0.050000 0.091636
v 0.001487 -0.050000 0.187546
v 0.031970 -0.050000 0.091636
v 0.137175 -0.050000 -0.235874
v 0.129155 -0.047053 -0.246874
v 0.123283 -0.039000 -0.254926
v 0.121134 -0.028000 -0.257874
v 0.207807 -0.050000 -0.235874
v 0.223161 -0.047053 -0.246874
v 0.234401 -0.039000 -0.254926
v 0.238515 -0.028000 -0.257874
v 0.042751 -0.050000 0.250000
v 0.050632 -0.047053 0.261000
v 0.056401 -0.039000 0.269053
v 0.058512 -0.028000 0.272000
v -0.046468 -0.050000 0.250000
v -0.054406 -0.047053 0.261000
v -0.060217 -0.039000 0.269053
v -0.062344 -0.028000 0.272000
v -0.207807 -0.050000 -0.235874
v -0.223050 -0.047053 -0.246874
v -0.234209 -0.039000 -0.254926
v -0.238293 -0.028000 -0.257874
v -0.133085 -0.050000 -0.235874
v -0.125057 -0.047053 -0.246874
v -0.119179 -0.039000 -0.254926
v -0.117028 -0.028000 -0.257874
v -0.028253 -0.050000 0.091636
v -0.017761 -0.047053 0.088330
v -0.010081 -0.039000 0.085910
v -0.007269 -0.028000 0.085024
v 0.001487 -0.050000 0.187546
v 0.001617 -0.047053 0.150823
v 0.001711 -0.039000 0.123940
v 0.001746 -0.028000 0.114100
v 0.031970 -0.050000 0.091636
v 0.021492 -0.047053 0.088288
v 0.013822 -0.039000 0.085837
v 0.011014 -0.028000 0.084940
v 0.121134 -0.028000 -0.257874
v 0.121134 0.028000 -0.257874
v 0.238515 -0.028000 -0.257874
v 0.238515 0.028000 -0.257874
v 0.058512 -0.028000 0.272000
v 0.058512 0.028000 0.272000
v -0.062344 -0.028000 0.272000
v -0.062344 0.028000 0.272000
v -0.238293 -0.028000 -0.257874
v -0.238293 0.028000 -0.257874
v -0.117028 -0.028000 -0.257874
v -0.117028 0.028000 -0.257874
v -0.007269 -0.028000 0.085024
v -0.007269 0.028000 0.085024
v 0.001746 -0.028000 0.114100
v 0.001746 0.028000 0.114100
v 0.011014 -0.028000 0.084940
v 0.011014 0.028000 0.084940
v 0.121134 0.028000 -0.257874
v 0.123283 0.039000 -0.254926
v 0.129155 0.047053 -0.246874
v 0.137175 0.050000 -0.235874
v 0.238515 0.028000 -0.257874
v 0.234401 0.039000 -0.254926
v 0.223161 0.047053 -0.246874
v 0.207807 0.050000 -0.235874
v 0.058512 0.028000 0.272000
v 0.056401 0.039000 0.269053
v 0.050632 0.047053 0.261000
v 0.042751 0.050000 0.250000
v -0.062344 0.028000 0.272000
v -0.060217 0.039000 0.269053
v -0.054406 0.047053 0.261000
v -0.046468 0.050000 0.250000
v -0.238293 0.028000 -0.257874
v -0.234209 0.039000 -0.254926
v -0.223050 0.047053 -0.246874
v -0.207807 0.050000 -0.235874
v -0.117028 0.028000 -0.257874
v -0.119179 0.039000 -0.254926
v -0.125057 0.047053 -0.246874
v -0.133085 0.050000 -0.235874
v -0.007269 0.028000 0.085024
v -0.010081 0.039000 0.085910
v -0.017761 0.047053 0.088330
v -0.028253 0.050000 0.091636
v 0.001746 0.028000 0.114100
v 0.001711 0.039000 0.123940
v 0.001617 0.047053 0.150823
v 0.001487 0.050000 0.187546
v 0.011014 0.028000 0.084940
v 0.013822 0.039000 0.085837
v 0.021492 0.047053 0.088288
v 0.031970 0.050000 0.091636
vn 0.0000 1.0000 -0.0000
vn 0.0000 -1.0000 0.0000
vn -0.2946 -0.8660 -0.4041
vn 0.3440 -0.9060 -0.2464
vn 0.1253 -0.9880 -0.0898
vn -0.1246 -0.9773 -0.1710
vn -0.5017 -0.5241 -0.6882
vn 0.6497 -0.6010 -0.4655
vn -0.5592 -0.3147 -0.7670
vn 0.7385 -0.4180 -0.5291
vn 0.2919 -0.8653 0.4074
vn 0.1239 -0.9771 0.1730
vn 0.4964 -0.5228 0.6930
vn 0.5531 -0.3130 0.7720
vn -0.2930 -0.8656 0.4060
vn -0.1242 -0.9772 0.1722
vn -0.4986 -0.5233 0.6910
vn -0.5556 -0.3137 0.7700
vn -0.3441 -0.9055 -0.2483
vn -0.1256 -0.9879 -0.0906
vn -0.6488 -0.5998 -0.4682
vn -0.7373 -0.4163 -0.5320
vn 0.2947 -0.8660 -0.4039
vn 0.1247 -0.9774 -0.1708
vn 0.5021 -0.5242 -0.6879
vn 0.5596 -0.3148 -0.7666
vn 0.4774 -0.8657 -0.1504
vn 0.2468 -0.9659 -0.0778
vn 0.8262 -0.4996 -0.2603
vn 0.9213 -0.2588 -0.2903
vn 0.0003 -0.9948 -0.1011
vn 0.0003 -0.9968 -0.0800
vn 0.0013 -0.9328 -0.3602
vn 0.0026 -0.6667 -0.7453
vn -0.4765 -0.8659 -0.1522
vn -0.2465 -0.9659 -0.0788
vn -0.8250 -0.4999 -0.2636
vn -0.9201 -0.2588 -0.2940
vn -0.5891 0.0000 -0.8080
vn 0.8129 0.0000 -0.5824
vn 0.5824 0.0000 0.8129
vn -0.5852 0.0000 0.8109
vn -0.8109 0.0000 -0.5852
vn 0.5895 0.0000 -0.8077
vn 0.9538 0.0000 -0.3005
vn 0.0035 0.0000 -1.0000
vn -0.9525 0.0000 -0.3044
vn -0.5017 0.5241 -0.6882
vn 0.6497 0.6010 -0.4655
vn 0.7385 0.4180 -0.5291
vn -0.5592 0.3147 -0.7670
vn -0.2946 0.8660 -0.4041
vn 0.3440 0.9060 -0.2464
vn -0.1246 0.9773 -0.1710
vn 0.1253 0.9880 -0.0898
vn 0.4964 0.5228 0.6930
vn 0.5531 0.3130 0.7720
vn 0.2919 0.8653 0.4074
vn 0.1239 0.9771 0.1730
vn -0.4986 0.5233 0.6910
vn -0.5556 0.3137 0.7700
vn -0.2930 0.8656 0.4060
vn -0.1242 0.9772 0.1722
vn -0.6488 0.5998 -0.4682
vn -0.7373 0.4163 -0.5320
vn -0.3441 0.9055 -0.2483
vn -0.1256 0.9879 -0.0906
vn 0.5021 0.5242 -0.6879
vn 0.5596 0.3148 -0.7666
vn 0.2947 0.8660 -0.4039
vn 0.1247 0.9774 -0.1708
vn 0.8262 0.4996 -0.2603
vn 0.9213 0.2588 -0.2903
vn 0.4774 0.8657 -0.1504
vn 0.2468 0.9659 -0.0778
vn 0.0013 0.9328 -0.3602
vn 0.0026 0.6667 -0.7453
vn 0.0003 0.9948 -0.1011
vn 0.0003 0.9968 -0.0800
vn -0.8250 0.4999 -0.2636
vn -0.9201 0.2588 -0.2940
vn -0.4765 0.8659 -0.1522
vn -0.2465 0.9659 -0.0788
usemtl None
s off
f 4//1 6//1 5//1
f 4//1 7//1 6//1
f 9//1 2//1 1//1
f 9//1 3//1 2//1
f 4//1 8//1 7//1
f 8//1 3//1 9//1
f 4//1 3//1 8//1
f 15//2 13//2 14//2
f 16//2 13//2 15//2
f 11//2 18//2 10//2
f 12//2 18//2 11//2
f 17//2 13//2 16//2
f 12//2 17//2 18//2
f 12//2 13//2 17//2
s 1
f 20//3 24//4 23//5 19//6
f 21//7 25//8 24//4 20//3
f 22//9 26//10 25//8 21//7
f 24//4 28//11 27//12 23//5
f 25//8 29//13 28//11 24//4
f 26//10 30//14 29//13 25//8
f 28//11 32//15 31//16 27//12
f 29//13 33//17 32//15 28//11
f 30//14 34//18 33//17 29//13
f 32//15 36//19 35//20 31//16
f 33//17 37//21 36//19 32//15
f 34//18 38//22 37//21 33//17
f 36//19 40//23 39//24 35//20
f 37//21 41//25 40//23 36//19
f 38//22 42//26 41//25 37//21
f 40//23 44//27 43//28 39//24
f 41//25 45//29 44//27 40//23
f 42//26 46//30 45//29 41//25
f 44//27 48//31 47//32 43//28
f 45//29 49//33 48//31 44//27
f 46//30 50//34 49//33 45//29
f 48//31 52//35 51//36 47//32
f 49//33 53//37 52//35 48//31
f 50//34 54//38 53//37 49//33
f 52//35 20//3 19//6 51//36
f 53//37 21//7 20//3 52//35
f 54//38 22//9 21//7 53//37
f 56//39 58//40 57//40 55//39
f 58//40 60//41 59//41 57//40
f 60//41 62//42 61//42 59//41
f 62//42 64//43 63//43 61//42
f 64//43 66//44 65//44 63//43
f 66//44 68//45 67//45 65//44
f 68//45 70//46 69//46 67//45
f 70//46 72//47 71//47 69//46
f 72//47 56//39 55//39 71//47
f 74//48 78//49 77//50 73//51
f 75//52 79//53 78//49 74//48
f 76//54 80//55 79//53 75//52
f 78//49 82//56 81//57 77//50
f 79//53 83//58 82//56 78//49
f 80//55 84//59 83//58 79//53
f 82//56 86//60 85//61 81//57
f 83//58 87//62 86//60 82//56
f 84//59 88//63 87//62 83//58
f 86//60 90//64 89//65 85//61
f 87//62 91//66 90//64 86//60
f 88//63 92//67 91//66 87//62
f 90//64 94//68 93//69 89//65
f 91//66 95//70 94//68 90//64
f 92//67 96//71 95//70 91//66
f 94//68 98//72 97//73 93//69
f 95//70 99//74 98//72 94//68
f 96//71 100//75 99//74 95//70
f 98//72 102//76 101//77 97//73
f 99//74 103//78 102//76 98//72
f 100//75 104//79 103//78 99//74
f 102//76 106//80 105//81 101//77
f 103//78 107//82 106//80 102//76
f 104//79 108//83 107//82 103//78
f 106//80 74//48 73//51 105//81
f 107//82 75//52 74//48 106//80
f 108//83 76//54 75//52 107//82
